<?xml version="1.0" encoding="UTF-8"?>
<svg id="Layer_1" data-name="Layer 1" xmlns="http://www.w3.org/2000/svg" xmlns:xlink="http://www.w3.org/1999/xlink" version="1.1" viewBox="0 0 200.7 523.2">
  <defs>
    <style>
      .cls-1 {
        clip-path: url(#clippath);
      }

      .cls-2 {
        stroke-width: 0px;
      }

      .cls-2, .cls-3 {
        fill: none;
      }

      .cls-3 {
        stroke: #fff;
        stroke-miterlimit: 10;
      }
    </style>
    <clipPath id="clippath">
      <rect class="cls-2" x="0" y="0" width="201.4" height="533.2"/>
    </clipPath>
  </defs>
  <g class="cls-1">
    <g>
      <path class="cls-3" d="M30.5,0c0,52.3-30,52.3-30,104.6s30,52.3,30,104.6c0,52.3-30,52.3-30,104.6s30,52.3,30,104.6S.5,471,.5,523.3"/>
      <path class="cls-3" d="M71.7,0c0,52.3-30,52.3-30,104.6s30,52.3,30,104.6c0,52.3-30,52.3-30,104.6s30,52.3,30,104.6-30,52.3-30,104.6"/>
      <path class="cls-3" d="M112.8,0c0,52.3-30,52.3-30,104.6s30,52.3,30,104.6c0,52.3-30,52.3-30,104.6s30,52.3,30,104.6-30,52.3-30,104.6"/>
      <path class="cls-3" d="M154,0c0,52.3-30,52.3-30,104.6,0,52.3,30,52.3,30,104.6,0,52.3-30,52.3-30,104.6,0,52.3,30,52.3,30,104.6s-30,52.3-30,104.6"/>
      <path class="cls-3" d="M195.1,0c0,52.3-30,52.3-30,104.6,0,52.3,30,52.3,30,104.6,0,52.3-30,52.3-30,104.6,0,52.3,30,52.3,30,104.6s-30,52.3-30,104.6"/>
    </g>
  </g>
</svg>