<?xml version="1.0" encoding="UTF-8"?>
<svg id="Layer_1" data-name="Layer 1" xmlns="http://www.w3.org/2000/svg" version="1.1" viewBox="0 0 114.1 77.5">
  <defs>
    <style>
      .cls-1 {
        letter-spacing: 0em;
      }

      .cls-1, .cls-2 {
        font-family: DMSans-Light, 'DM Sans';
        font-size: 10px;
        font-weight: 300;
      }

      .cls-1, .cls-2, .cls-3 {
        isolation: isolate;
      }

      .cls-1, .cls-2, .cls-4 {
        fill: #231f20;
      }

      .cls-4 {
        stroke-width: 0px;
      }
    </style>
  </defs>
  <g class="cls-3">
    <g class="cls-3">
      <path class="cls-4" d="M28.1,35.1c-.8,0-1.6-.2-2.2-.6-.6-.4-1.1-1-1.5-1.7-.4-.7-.5-1.6-.5-2.5s.2-1.8.5-2.5c.4-.7.9-1.3,1.5-1.6.7-.4,1.4-.6,2.3-.6s1.6.2,2.2.6c.6.4,1.1.9,1.4,1.5.3.6.5,1.3.5,2.1v.4c0,.1,0,.3,0,.4h-7.5v-1.1h6.2c0-.9-.3-1.6-.9-2.1-.5-.5-1.2-.8-2.1-.8s-1,.1-1.5.4c-.5.2-.8.6-1.1,1.1-.3.5-.4,1.1-.4,1.8v.5c0,.8.1,1.5.4,2s.7.9,1.1,1.2c.5.3,1,.4,1.5.4s1.2-.2,1.7-.5c.4-.3.8-.7,1-1.3h1.2c-.1.5-.4,1-.7,1.4s-.8.8-1.3,1c-.5.2-1.1.4-1.8.4ZM26.3,25v-.9c-.1,0,3.4-2.3,3.4-2.3l.2,1.1-3.6,2.1Z"/>
      <path class="cls-4" d="M34.3,34.9v-9.1h1.2v1.7c.3-.4.5-.8.9-1.1.3-.3.7-.5,1.2-.7s1-.2,1.5-.2v1.3h-.5c-.4,0-.8,0-1.1.2-.4.1-.7.3-1,.5-.3.2-.5.6-.7,1-.2.4-.3.9-.3,1.5v4.8h-1.3Z"/>
      <path class="cls-4" d="M43.7,35.1c-.7,0-1.3-.1-1.8-.4-.5-.3-.8-.6-1.1-1s-.4-.9-.4-1.4.2-1.2.5-1.6c.3-.4.8-.8,1.4-1,.6-.2,1.3-.3,2-.3h2.4c0-.6,0-1.1-.3-1.5-.2-.4-.4-.7-.8-.9s-.8-.3-1.3-.3-1.2.2-1.6.5c-.4.3-.7.8-.8,1.4h-1.3c0-.6.3-1.2.7-1.6.4-.4.8-.8,1.4-1,.5-.2,1.1-.3,1.7-.3s1.5.2,2,.5c.5.3.9.8,1.2,1.3.3.6.4,1.2.4,1.9v5.6h-1.2v-1.7c-.2.3-.3.5-.5.7-.2.2-.4.4-.6.6-.2.2-.5.3-.9.4-.3.1-.7.2-1.1.2ZM43.8,33.9c.5,0,.9,0,1.2-.3s.6-.4.9-.7c.3-.3.4-.6.6-1,.1-.4.2-.8.2-1.2v-.3h-2.4c-.6,0-1.1,0-1.5.2-.4.2-.7.4-.8.6s-.3.6-.3.9,0,.7.2.9.4.5.7.6c.3.1.7.2,1.1.2Z"/>
    </g>
    <g class="cls-3">
      <path class="cls-4" d="M53.6,35.1c-.7,0-1.4-.1-1.9-.4-.5-.2-1-.6-1.3-1s-.5-1-.6-1.6h1.3c0,.3.2.7.4,1,.2.3.5.5.9.7.4.2.8.3,1.3.3s.8,0,1.1-.2c.3-.1.5-.3.7-.5.1-.2.2-.5.2-.8s0-.7-.3-.9c-.2-.2-.5-.4-.8-.5-.3-.1-.8-.2-1.3-.3-.4,0-.8-.2-1.2-.3-.4-.1-.7-.3-1-.5-.3-.2-.5-.4-.7-.7s-.3-.6-.3-1,.1-1,.4-1.4c.3-.4.6-.7,1.1-.9.5-.2,1-.3,1.7-.3.9,0,1.7.2,2.3.7.6.5.9,1.1,1,2h-1.3c0-.5-.3-.9-.6-1.2s-.8-.4-1.5-.4-1.1.1-1.4.4-.5.6-.5,1,0,.5.3.7c.2.2.4.4.7.5s.7.3,1.2.4c.6.1,1.1.2,1.6.4s.9.4,1.2.8c.3.4.5.9.5,1.5,0,.5-.1,1-.4,1.4-.3.4-.7.7-1.2,1-.5.2-1.1.4-1.8.4Z"/>
    </g>
    <g class="cls-3">
      <path class="cls-4" d="M62.2,34.9c-.5,0-1,0-1.3-.2s-.7-.4-.9-.8-.3-.9-.3-1.6v-5.4h-1.6v-1.1h1.6l.2-2.1h1.1v2.1h2.7v1.1h-2.7v5.4c0,.6.1,1,.4,1.2.2.2.7.3,1.3.3h.9v1.1h-1.4Z"/>
      <path class="cls-4" d="M68.6,35.1c-.7,0-1.3-.1-1.8-.4s-.8-.6-1.1-1c-.2-.4-.4-.9-.4-1.4s.2-1.2.5-1.6c.3-.4.8-.8,1.4-1,.6-.2,1.3-.3,2-.3h2.4c0-.6,0-1.1-.3-1.5s-.4-.7-.8-.9-.8-.3-1.3-.3-1.2.2-1.6.5c-.4.3-.7.8-.8,1.4h-1.3c0-.6.3-1.2.7-1.6.4-.4.8-.8,1.4-1,.5-.2,1.1-.3,1.7-.3s1.5.2,2,.5c.5.3.9.8,1.2,1.3.3.6.4,1.2.4,1.9v5.6h-1.2v-1.7c-.2.3-.3.5-.5.7-.2.2-.4.4-.6.6s-.5.3-.9.4c-.3.1-.7.2-1.1.2ZM68.7,33.9c.5,0,.9,0,1.2-.3.3-.2.6-.4.9-.7s.4-.6.6-1c.1-.4.2-.8.2-1.2v-.3h-2.4c-.6,0-1.1,0-1.5.2s-.7.4-.8.6-.3.6-.3.9,0,.7.2.9.4.5.7.6c.3.1.7.2,1.1.2Z"/>
      <path class="cls-4" d="M78.6,35.1c-.7,0-1.4-.1-1.9-.4-.5-.2-1-.6-1.3-1s-.5-1-.6-1.6h1.3c0,.3.2.7.4,1s.5.5.9.7c.4.2.8.3,1.3.3s.8,0,1.1-.2.5-.3.7-.5c.2-.2.2-.5.2-.8s0-.7-.3-.9c-.2-.2-.5-.4-.8-.5-.3-.1-.8-.2-1.3-.3-.4,0-.8-.2-1.2-.3-.4-.1-.7-.3-1-.5-.3-.2-.5-.4-.7-.7s-.3-.6-.3-1,.1-1,.4-1.4c.3-.4.6-.7,1.1-.9.5-.2,1-.3,1.7-.3.9,0,1.7.2,2.3.7.6.5.9,1.1,1,2h-1.3c0-.5-.3-.9-.6-1.2-.4-.3-.8-.4-1.5-.4s-1.1.1-1.4.4c-.3.2-.5.6-.5,1s0,.5.3.7c.2.2.4.4.7.5s.7.3,1.2.4c.6.1,1.1.2,1.6.4.5.2.9.4,1.2.8.3.4.5.9.5,1.5,0,.5-.1,1-.4,1.4s-.7.7-1.2,1c-.5.2-1.1.4-1.8.4Z"/>
      <path class="cls-4" d="M88,35.1c-.8,0-1.6-.2-2.2-.6-.6-.4-1.1-1-1.5-1.7s-.5-1.6-.5-2.5.2-1.8.5-2.5.9-1.3,1.5-1.6c.7-.4,1.4-.6,2.3-.6s1.6.2,2.2.6c.6.4,1.1.9,1.4,1.5.3.6.5,1.3.5,2.1v.4c0,.1,0,.3,0,.4h-7.5v-1.1h6.2c0-.9-.3-1.6-.9-2.1-.5-.5-1.2-.8-2.1-.8s-1,.1-1.5.4c-.5.2-.8.6-1.1,1.1-.3.5-.4,1.1-.4,1.8v.5c0,.8.1,1.5.4,2s.7.9,1.1,1.2c.5.3,1,.4,1.5.4s1.2-.2,1.7-.5c.4-.3.8-.7,1-1.3h1.2c-.1.5-.4,1-.7,1.4-.3.4-.8.8-1.3,1-.5.2-1.1.4-1.8.4Z"/>
    </g>
  </g>
  <g class="cls-3">
    <g class="cls-3">
      <path class="cls-4" d="M7.3,51V9h4.2v19.7L29.6,9h5.3l-15.7,16.8,15.8,25.2h-5.1l-13.7-22-4.9,5.2v16.8h-4.2Z"/>
    </g>
  </g>
  <g class="cls-3">
    <text class="cls-1" transform="translate(47.6 48.9)"><tspan x="0" y="0">P</tspan></text>
    <text class="cls-2" transform="translate(53.1 48.9)"><tspan x="0" y="0">aris</tspan></text>
  </g>
  <g class="cls-3">
    <g class="cls-3">
      <path class="cls-4" d="M105.2,51v-16.8l-4.9-5.2-13.7,22h-5.1l15.8-25.2-15.7-16.8h5.3l18.2,19.7V9h4.2v42h-4.2Z"/>
    </g>
  </g>
</svg>