<?xml version="1.0" encoding="UTF-8"?>
<svg id="Layer_1" data-name="Layer 1" xmlns="http://www.w3.org/2000/svg" version="1.1" viewBox="0 0 114.1 77.5">
  <defs>
    <style>
      .cls-1 {
        isolation: isolate;
      }

      .cls-2 {
        fill: #fff;
        stroke-width: 0px;
      }
    </style>
  </defs>
  <g class="cls-1">
    <g class="cls-1">
      <path class="cls-2" d="M28.1,35.1c-.8,0-1.6-.2-2.2-.6-.6-.4-1.1-1-1.5-1.7-.4-.7-.5-1.6-.5-2.5s.2-1.8.5-2.5c.4-.7.9-1.3,1.5-1.6.7-.4,1.4-.6,2.3-.6s1.6.2,2.2.6c.6.4,1.1.9,1.4,1.5.3.6.5,1.3.5,2.1v.4c0,.1,0,.3,0,.4h-7.5v-1.1h6.2c0-.9-.3-1.6-.9-2.1-.5-.5-1.2-.8-2.1-.8s-1,.1-1.5.4c-.5.2-.8.6-1.1,1.1-.3.5-.4,1.1-.4,1.8v.5c0,.8.1,1.5.4,2s.7.9,1.1,1.2c.5.3,1,.4,1.5.4s1.2-.2,1.7-.5c.4-.3.8-.7,1-1.3h1.2c-.1.5-.4,1-.7,1.4s-.8.8-1.3,1c-.5.2-1.1.4-1.8.4ZM26.3,25v-.9c-.1,0,3.4-2.3,3.4-2.3l.2,1.1-3.6,2.1Z"/>
      <path class="cls-2" d="M34.3,34.9v-9.1h1.2v1.7c.3-.4.5-.8.9-1.1.3-.3.7-.5,1.2-.7s1-.2,1.5-.2v1.3h-.5c-.4,0-.8,0-1.1.2-.4.1-.7.3-1,.5-.3.2-.5.6-.7,1-.2.4-.3.9-.3,1.5v4.8h-1.3Z"/>
      <path class="cls-2" d="M43.7,35.1c-.7,0-1.3-.1-1.8-.4-.5-.3-.8-.6-1.1-1s-.4-.9-.4-1.4.2-1.2.5-1.6c.3-.4.8-.8,1.4-1,.6-.2,1.3-.3,2-.3h2.4c0-.6,0-1.1-.3-1.5-.2-.4-.4-.7-.8-.9s-.8-.3-1.3-.3-1.2.2-1.6.5c-.4.3-.7.8-.8,1.4h-1.3c0-.6.3-1.2.7-1.6.4-.4.8-.8,1.4-1,.5-.2,1.1-.3,1.7-.3s1.5.2,2,.5c.5.3.9.8,1.2,1.3.3.6.4,1.2.4,1.9v5.6h-1.2v-1.7c-.2.3-.3.5-.5.7-.2.2-.4.4-.6.6-.2.2-.5.3-.9.4-.3.1-.7.2-1.1.2ZM43.8,33.9c.5,0,.9,0,1.2-.3s.6-.4.9-.7c.3-.3.4-.6.6-1,.1-.4.2-.8.2-1.2v-.3h-2.4c-.6,0-1.1,0-1.5.2-.4.2-.7.4-.8.6s-.3.6-.3.9,0,.7.2.9.4.5.7.6c.3.1.7.2,1.1.2Z"/>
    </g>
    <g class="cls-1">
      <path class="cls-2" d="M53.6,35.1c-.7,0-1.4-.1-1.9-.4-.5-.2-1-.6-1.3-1s-.5-1-.6-1.6h1.3c0,.3.2.7.4,1,.2.3.5.5.9.7.4.2.8.3,1.3.3s.8,0,1.1-.2c.3-.1.5-.3.7-.5.1-.2.2-.5.2-.8s0-.7-.3-.9c-.2-.2-.5-.4-.8-.5-.3-.1-.8-.2-1.3-.3-.4,0-.8-.2-1.2-.3-.4-.1-.7-.3-1-.5-.3-.2-.5-.4-.7-.7s-.3-.6-.3-1,.1-1,.4-1.4c.3-.4.6-.7,1.1-.9.5-.2,1-.3,1.7-.3.9,0,1.7.2,2.3.7.6.5.9,1.1,1,2h-1.3c0-.5-.3-.9-.6-1.2s-.8-.4-1.5-.4-1.1.1-1.4.4-.5.6-.5,1,0,.5.3.7c.2.2.4.4.7.5s.7.3,1.2.4c.6.1,1.1.2,1.6.4s.9.4,1.2.8c.3.4.5.9.5,1.5,0,.5-.1,1-.4,1.4-.3.4-.7.7-1.2,1-.5.2-1.1.4-1.8.4Z"/>
    </g>
    <g class="cls-1">
      <path class="cls-2" d="M62.2,34.9c-.5,0-1,0-1.3-.2s-.7-.4-.9-.8-.3-.9-.3-1.6v-5.4h-1.6v-1.1h1.6l.2-2.1h1.1v2.1h2.7v1.1h-2.7v5.4c0,.6.1,1,.4,1.2.2.2.7.3,1.3.3h.9v1.1h-1.4Z"/>
      <path class="cls-2" d="M68.6,35.1c-.7,0-1.3-.1-1.8-.4s-.8-.6-1.1-1c-.2-.4-.4-.9-.4-1.4s.2-1.2.5-1.6c.3-.4.8-.8,1.4-1,.6-.2,1.3-.3,2-.3h2.4c0-.6,0-1.1-.3-1.5s-.4-.7-.8-.9-.8-.3-1.3-.3-1.2.2-1.6.5c-.4.3-.7.8-.8,1.4h-1.3c0-.6.3-1.2.7-1.6.4-.4.8-.8,1.4-1,.5-.2,1.1-.3,1.7-.3s1.5.2,2,.5c.5.3.9.8,1.2,1.3.3.6.4,1.2.4,1.9v5.6h-1.2v-1.7c-.2.3-.3.5-.5.7-.2.2-.4.4-.6.6s-.5.3-.9.4c-.3.1-.7.2-1.1.2ZM68.7,33.9c.5,0,.9,0,1.2-.3.3-.2.6-.4.9-.7s.4-.6.6-1c.1-.4.2-.8.2-1.2v-.3h-2.4c-.6,0-1.1,0-1.5.2s-.7.4-.8.6-.3.6-.3.9,0,.7.2.9.4.5.7.6c.3.1.7.2,1.1.2Z"/>
      <path class="cls-2" d="M78.6,35.1c-.7,0-1.4-.1-1.9-.4-.5-.2-1-.6-1.3-1s-.5-1-.6-1.6h1.3c0,.3.2.7.4,1s.5.5.9.7c.4.2.8.3,1.3.3s.8,0,1.1-.2.5-.3.7-.5c.2-.2.2-.5.2-.8s0-.7-.3-.9c-.2-.2-.5-.4-.8-.5-.3-.1-.8-.2-1.3-.3-.4,0-.8-.2-1.2-.3-.4-.1-.7-.3-1-.5-.3-.2-.5-.4-.7-.7s-.3-.6-.3-1,.1-1,.4-1.4c.3-.4.6-.7,1.1-.9.5-.2,1-.3,1.7-.3.9,0,1.7.2,2.3.7.6.5.9,1.1,1,2h-1.3c0-.5-.3-.9-.6-1.2-.4-.3-.8-.4-1.5-.4s-1.1.1-1.4.4c-.3.2-.5.6-.5,1s0,.5.3.7c.2.2.4.4.7.5s.7.3,1.2.4c.6.1,1.1.2,1.6.4.5.2.9.4,1.2.8.3.4.5.9.5,1.5,0,.5-.1,1-.4,1.4s-.7.7-1.2,1c-.5.2-1.1.4-1.8.4Z"/>
      <path class="cls-2" d="M88,35.1c-.8,0-1.6-.2-2.2-.6-.6-.4-1.1-1-1.5-1.7s-.5-1.6-.5-2.5.2-1.8.5-2.5.9-1.3,1.5-1.6c.7-.4,1.4-.6,2.3-.6s1.6.2,2.2.6c.6.4,1.1.9,1.4,1.5.3.6.5,1.3.5,2.1v.4c0,.1,0,.3,0,.4h-7.5v-1.1h6.2c0-.9-.3-1.6-.9-2.1-.5-.5-1.2-.8-2.1-.8s-1,.1-1.5.4c-.5.2-.8.6-1.1,1.1-.3.5-.4,1.1-.4,1.8v.5c0,.8.1,1.5.4,2s.7.9,1.1,1.2c.5.3,1,.4,1.5.4s1.2-.2,1.7-.5c.4-.3.8-.7,1-1.3h1.2c-.1.5-.4,1-.7,1.4-.3.4-.8.8-1.3,1-.5.2-1.1.4-1.8.4Z"/>
    </g>
  </g>
  <g class="cls-1">
    <g class="cls-1">
      <path class="cls-2" d="M4.7,51V9h4.2v19.7L27.1,9h5.3l-15.7,16.8,15.8,25.2h-5.1l-13.7-22-4.9,5.2v16.8h-4.2Z"/>
    </g>
  </g>
  <g class="cls-1">
    <g class="cls-1">
      <path class="cls-2" d="M48.4,48.9v-7h2.2c.5,0,1,0,1.3.3.4.2.6.4.8.7.2.3.2.6.2,1s0,.7-.2,1c-.2.3-.4.5-.8.7-.4.2-.8.3-1.3.3h-1.5v3h-.7ZM49.1,45.4h1.5c.6,0,1-.1,1.3-.4.3-.3.4-.6.4-1s-.1-.8-.4-1.1-.7-.4-1.3-.4h-1.5v2.9Z"/>
    </g>
    <g class="cls-1">
      <path class="cls-2" d="M55.4,49.1c-.4,0-.7,0-1-.2s-.5-.3-.6-.6-.2-.5-.2-.8,0-.6.3-.9c.2-.2.4-.4.8-.5s.7-.2,1.1-.2h1.4c0-.3,0-.6-.1-.8s-.2-.4-.4-.5c-.2-.1-.4-.2-.7-.2s-.6,0-.9.3c-.2.2-.4.4-.5.8h-.7c0-.4.2-.7.4-.9.2-.2.5-.4.8-.5.3-.1.6-.2,1-.2s.8,0,1.1.3c.3.2.5.4.7.7.1.3.2.7.2,1.1v3.1h-.6v-.9c0,.1-.2.3-.3.4-.1.1-.2.2-.4.3-.1,0-.3.2-.5.2s-.4,0-.6,0ZM55.5,48.4c.3,0,.5,0,.7-.2.2,0,.4-.2.5-.4.1-.2.2-.4.3-.6,0-.2.1-.4.1-.6v-.2h-1.3c-.4,0-.6,0-.9.1-.2,0-.4.2-.5.4s-.1.3-.1.5,0,.4.1.5.2.3.4.3.4.1.6.1Z"/>
      <path class="cls-2" d="M59.1,48.9v-5h.6v1c.2-.2.3-.4.5-.6s.4-.3.7-.4c.3,0,.5-.1.9-.1v.7h-.3c-.2,0-.4,0-.6,0s-.4.2-.5.3c-.2.1-.3.3-.4.5,0,.2-.1.5-.1.8v2.7h-.7Z"/>
      <path class="cls-2" d="M63.2,42.7c-.1,0-.3,0-.4-.1s-.2-.2-.2-.4,0-.3.1-.4c0,0,.2-.1.4-.1s.2,0,.3.1c0,0,.2.2.2.4s0,.3-.1.4-.2.1-.4.1ZM62.8,48.9v-5h.7v5h-.7Z"/>
      <path class="cls-2" d="M66.9,49.1c-.4,0-.8,0-1.1-.2-.3-.1-.5-.3-.7-.6-.2-.2-.3-.5-.3-.9h.7c0,.2.1.4.2.5.1.2.3.3.5.4.2,0,.4.1.7.1s.5,0,.6-.1c.2,0,.3-.2.4-.3,0-.1.1-.3.1-.4s0-.4-.2-.5c-.1-.1-.3-.2-.4-.3-.2,0-.4-.1-.7-.2-.2,0-.4,0-.6-.2s-.4-.2-.5-.3c-.2-.1-.3-.2-.4-.4s-.1-.4-.1-.6,0-.5.2-.8.3-.4.6-.5c.3-.1.6-.2.9-.2.5,0,.9.1,1.3.4.3.3.5.6.6,1.1h-.7c0-.3-.1-.5-.3-.6s-.5-.2-.8-.2-.6,0-.8.2c-.2.1-.3.3-.3.6s0,.3.1.4c0,.1.2.2.4.3.2,0,.4.1.7.2.3,0,.6.1.9.2.3,0,.5.2.7.4s.3.5.3.8c0,.3,0,.6-.2.8-.2.2-.4.4-.6.5s-.6.2-1,.2Z"/>
    </g>
  </g>
  <g class="cls-1">
    <g class="cls-1">
      <path class="cls-2" d="M105.2,51v-16.8l-4.9-5.2-13.7,22h-5.1l15.8-25.2-15.7-16.8h5.3l18.2,19.7V9h4.2v42h-4.2Z"/>
    </g>
  </g>
</svg>