<?xml version="1.0" encoding="utf-8"?>
<!-- Generator: Adobe Illustrator 19.0.0, SVG Export Plug-In . SVG Version: 6.00 Build 0)  -->
<svg version="1.1" id="layer" xmlns="http://www.w3.org/2000/svg" xmlns:xlink="http://www.w3.org/1999/xlink" x="0px" y="0px"
	 viewBox="-153 -46 652 652" style="enable-background:new -153 -46 652 652;" xml:space="preserve">
<style type="text/css">
	.st0{fill:#152128;}
</style>
<path class="st0" d="M-27.1,214h-4l15-16.5c1.1-1.2,2-2.2,2.9-3.2c1.1-0.8,1.9-2.2,3.2-2.3c1.9-0.5,4.2,0.6,4.8,2.8
	c0.3,0.9,0.6,2.8-0.2,3.6c-0.6,1.4-1.9,2.2-2.9,2.9L-27.1,214z M354.2,312.3h-12l-12.8-35.7H300l-13.3,35.7h-8.2l37.2-92.5h2.8
	L354.2,312.3z M314.7,237.1L302,270.9h25.5C327.5,270.9,314.7,237.1,314.7,237.1z M159.3,312.3h-12l-12.8-35.7h-29.3l-13.3,35.7
	h-8.3l37.2-92.5h2.8L159.3,312.3z M119.8,237.1l-12.7,33.8h25.5C132.6,270.9,119.8,237.1,119.8,237.1z M148.5,360.8H145l-3.9-10.8
	h-8.8l-4,10.8h-2.5l11.1-27.8h0.8L148.5,360.8L148.5,360.8z M136.6,338.1l-3.9,10.2h7.6L136.6,338.1z M469.5,305.6
	c0,0-0.2,4.9,0,6.2h-43.1v-90.2h42.3v6.2h-31.8V261h29v5.9h-29v38.6h32.6V305.6z M1.2,305.6c0,0-0.2,4.9,0,6.2h-43.1v-90.2H0.4v6.2
	h-31.8V261h29v5.9h-29v38.6H1.2V305.6z M381.6,314c-7.3,0-13.6-1.5-19-4.8v-11.4c2.8,3.4,10,11.4,21,11.4c13.3,0,19.3-9.3,19.3-18.4
	c0-11.3-7.3-15.4-15.8-19c-13.3-5.9-16.7-7.3-19.9-10.3c-3.9-3.2-6.2-9.6-6.2-16.2c0-17.6,13.7-25.5,27.5-25.5c8,0,14.7,2.6,17.5,4
	v11c-2.5-3.1-9.6-10.5-19-10.5c-16.2,0-16.7,14.4-16.7,15.9c0,11.1,8.8,14.8,14.8,17.5c13,5.3,16.5,6.6,20.7,10.3
	c5.7,4.8,6.9,11.7,6.9,16.7C412.6,299.3,403,314,381.6,314 M221,360.8c-2.2,0-4-0.5-5.7-1.4V356c0.9,1.1,2.9,3.4,6.3,3.4
	c4,0,5.7-2.8,5.7-5.6c0-3.4-2.2-4.6-4.8-5.7c-4-1.7-5.1-2.2-6-3.1c-1.1-0.9-1.9-2.8-1.9-4.8c0-5.3,4.2-7.6,8.2-7.6
	c2.5,0,4.5,0.8,5.3,1.2v3.2c-0.8-0.9-2.9-3.1-5.7-3.1c-4.9,0-5.1,4.3-5.1,4.8c0,3.4,2.6,4.5,4.5,5.3c3.9,1.5,4.9,2,6.2,3.1
	c1.7,1.4,2,3.6,2,5.1C230.2,356.3,227.4,360.8,221,360.8 M186.1,314.4c-7.3,0-13.6-1.5-19-4.8v-11.4c2.9,3.4,10,11.4,21,11.4
	c13.3,0,19.3-9.3,19.3-18.4c0-11.3-7.3-15.4-15.6-19c-13.3-5.9-16.7-7.3-19.9-10.3c-3.9-3.2-6.2-9.6-6.2-16.2
	c0-17.6,13.7-25.5,27.5-25.5c8,0,14.7,2.6,17.5,4v11c-2.5-3.1-9.6-10.5-19-10.5c-16.2,0-16.7,14.4-16.7,15.9
	c0,11.1,8.8,14.8,14.8,17.5c13,5.3,16.5,6.6,20.7,10.3c5.7,4.8,6.8,11.7,6.8,16.7C217.2,299.6,207.5,314.4,186.1,314.4 M283.7,221.6
	h-61.5v5.9h26.1v84.9h10.5v-84.9h24.9V221.6z M46.9,266.9c12-2.3,25.3-9.3,25.3-24.6c0-13.4-10.5-20.7-27.5-20.7H19.6v90.7h10.5
	v-44.2h4.5l9.6,12.5l14.1,20.2c2.5,3.7,4.9,7.4,7.6,11.6c2.2-0.2,13.7,0,13.7,0L46.9,266.9z M37,263.3c-2.8,0.2-4.6,0.2-6.9-0.2
	v-36.6H40c9.3,0,21.6,1.5,21.6,17.1C61.6,262.2,42.7,263,37,263.3z M109.5,347.2c3.6-0.8,7.6-2.8,7.6-7.4c0-4-3.1-6.2-8.2-6.2h-7.6
	v27.2h3.1v-13.3h1.4C107.3,347.5,109.4,347.2,109.5,347.2L109.5,347.2z M106.4,346.1h-2v-11h2.9c2.8,0,6.5,0.5,6.5,5.1
	C113.8,345.8,108.1,345.9,106.4,346.1L106.4,346.1z M172.5,347.2c3.6-0.8,7.6-2.8,7.6-7.4c0-4-3.1-6.2-8.2-6.2h-7.6v27.2h3.1v-13.3
	h1.4l2.9,3.7l4.2,6c0.8,1.1,1.5,2.2,2.3,3.4h4.2L172.5,347.2L172.5,347.2z M169.5,346.1h-2v-11h2.9c2.8,0,6.5,0.5,6.5,5.1
	C176.8,345.8,171.2,345.9,169.5,346.1L169.5,346.1z M-106.5,245.5l53.1-54.2h-13.3l-48.8,54.8c0,0-1.4,1.5-2.3,1.5v-56.4h-12.8
	v120.9h12.8v-61.6c0.9,0.2,1.9,1.4,1.9,1.4l46.9,60.2h17L-106.5,245.5z M196.9,333.4h3.1v27.3h-3.1V333.4z"/>
</svg>
