<?xml version="1.0" encoding="UTF-8"?>
<svg id="Layer_1" data-name="Layer 1" xmlns="http://www.w3.org/2000/svg" xmlns:xlink="http://www.w3.org/1999/xlink" version="1.1" viewBox="0 0 131 533.5">
  <defs>
    <style>
      .cls-1 {
        clip-path: url(#clippath);
      }

      .cls-2 {
        fill: none;
      }

      .cls-2, .cls-3 {
        stroke-width: 0px;
      }

      .cls-3 {
        fill: #fff;
      }
    </style>
    <clipPath id="clippath">
      <rect class="cls-2" y="-5" width="131" height="538.5"/>
    </clipPath>
  </defs>
  <g class="cls-1">
    <g>
      <path class="cls-3" d="M6.3,524.3c0,.8.4.5.5.6,0-1.3-.6-.6-.5-.6Z"/>
      <polygon class="cls-3" points="5.3 511.4 5.5 511.6 5.1 509.7 5.3 511.4"/>
      <path class="cls-3" d="M5.3,499.3c-.7,1.1.1,4.4-.1,6.5l-.2.4.6,1c0-2.6-.5-6-.3-7.9Z"/>
      <path class="cls-3" d="M6.9,492.9c-.3.4-.2-1.4,0,1.5,0-.1,0-.2,0-.3,0-.3,0-.6,0-1.2Z"/>
      <path class="cls-3" d="M6.9,494.1c0,1.3.2-.8,0,0h0Z"/>
      <path class="cls-3" d="M6.7,488.2l.2,1.7c.2-.4.2-1.8.3-1.3-.1-1.7-.3-1.4-.6-.4Z"/>
      <path class="cls-3" d="M6.2,486.6v.9c.2-.2.2-.4,0-.9Z"/>
      <path class="cls-3" d="M6.5,489.4l-.2-1.8c-.1.2-.3.3,0,.8-.2-.2,0,.2.1,1h0Z"/>
      <path class="cls-3" d="M6.4,490.4c-.2.9-.2,2.1-.5.5,0,3.2.6,2.7.5-.5Z"/>
      <path class="cls-3" d="M4.6,498.7l-.2,1.3.2,1.1c-.1-.5.2-2.4,0-2.3h0Z"/>
      <path class="cls-3" d="M7.1,477.8c-.2-.1-.4.6-.6.7l.2,1.2c0-.6.2-1.8.4-1.9h0Z"/>
      <path class="cls-3" d="M6.5,478.5l-.3-1.8c0,1.7,0,2,.3,1.8Z"/>
      <polygon class="cls-3" points="5.4 486.3 5.9 489.4 5.4 485.8 5.4 486.3"/>
      <polygon class="cls-3" points="7.1 470.7 7.5 471.8 6.9 469.9 7.1 470.7"/>
      <path class="cls-3" d="M7,466c.3.8.5-1.1.7-.2,0-1.3-.3-2.4-.5-3.3.1,1,0,2.1-.1,3.6Z"/>
      <path class="cls-3" d="M6.9,460.8c0,.5.2,1.1.3,1.6,0-.6-.2-1.1-.3-1.6Z"/>
      <path class="cls-3" d="M6.3,473.5c0-.1.3-.4.4-1.5l-.4.7v.7Z"/>
      <path class="cls-3" d="M6.3,472.8h0c0-.8,0-1.4,0-1.6,0,.2,0,.7,0,1.6h0Z"/>
      <path class="cls-3" d="M6.3,473.7v-.2c0,0,0,.1,0,.2Z"/>
      <path class="cls-3" d="M5.8,481.5c-.2-1.1-.5-3.4-.9-1.2.3.8.5-.5.9,1.2Z"/>
      <path class="cls-3" d="M5.8,474.6v2s.2-.4.3.1l-.3-2.1h0Z"/>
      <polygon class="cls-3" points="5.6 473.6 5.8 474.6 5.8 473.8 5.6 473.6"/>
      <path class="cls-3" d="M6.5,464.2c-.2-.8-.2-1.8-.2-2.8,0,1.1-.1,2.3-.1,3.4.1.2.4.6.4-.6Z"/>
      <path class="cls-3" d="M6.3,468.3c0,0,0-.1,0-.2,0,.1,0,.2,0,.2Z"/>
      <path class="cls-3" d="M6.2,451c0,0,0,.1,0,.2,0,0,0,0,0,0v-.2h0Z"/>
      <path class="cls-3" d="M6,464.9c0,.8,0,1.4.2,1.8,0-.6,0-1.3,0-2,0,0,0,0,0,.2h0Z"/>
      <path class="cls-3" d="M6.7,457.9c0,.4-.2.9-.2,1.5.1-.4.3-1.3.2-1.5Z"/>
      <path class="cls-3" d="M6.4,467.9s0,0,0,.1c0-.3,0-.2,0-.1Z"/>
      <path class="cls-3" d="M6.4,467.9c0-.4-.2-.8-.3-1.1,0,.5,0,1,.1,1.4,0-.1,0-.2.1-.3h0Z"/>
      <path class="cls-3" d="M3.5,447.9c.4.2.8,2.4.3,4.3.3,1.9,1.6.7,2.3-1-.2,0-.3,0-.6-2-.2.7-.5,4.3-.9,2.7-.2-2.6.1-2.1.3-3.4-.5,1.1-.7-3.3-1.4-2.7l.3,2.3c-.1,0-.3-.8-.4-.2h0Z"/>
      <path class="cls-3" d="M6.1,454.9v.8c.1-.9.3-1.6.6-2.8-.2-1.3-.3-1.6-.5-1.7v3.9c0,0-.1-.3-.1-.3h0Z"/>
      <path class="cls-3" d="M6.2,459.3c-.4-.6-.6-2.5-1.1-1.4,0,2.4.4,1.6.6,3-.1-3.8.2,1.1.5-1.6,0,.7,0,1.4.1,2,0-.7.1-1.3.2-2,0,0,0,0,0,0h0c0,.2,0,.2,0,0h0c0-.1-.1-.2-.2-.3,0-1.1.1-.2.2.2,0,0,0,0,0,0h0s-.2-3.8-.2-3.8c0,.8,0,1.8,0,3.6h0Z"/>
      <path class="cls-3" d="M4,478.3c0-.1,0-.1,0-.1,0-.2,0-.3,0,.1Z"/>
      <path class="cls-3" d="M4.3,476.7c0,.3.2.5.2,1.4-.1.8-.2,0-.3,0,.1.5.3,1.9.5.2v-.3c0-1.5.6-3.5.7-3.2-.4.4-.7.8-1,1.9h0Z"/>
      <path class="cls-3" d="M5.1,467.9l-.2-3.2-.4,1.6h.2c0,1.7.2,1.3.4,1.6Z"/>
      <polygon class="cls-3" points="6.4 450.6 6.9 451.1 6.3 449.2 6.4 450.6"/>
      <polygon class="cls-3" points="6.4 446.5 6.8 446.7 6.6 445.6 6.4 446.5"/>
      <path class="cls-3" d="M1.5,214.9v-.9c0,.4,0,.7,0,.9Z"/>
      <path class="cls-3" d="M1.5,221.6l.2.2c-.1-.3-.2-.4-.2-.2Z"/>
      <path class="cls-3" d="M6.3,345.7c.4-1.4.9-2.9.5-2.7l-.4.4c0,.9,0,1.7,0,2.3h0Z"/>
      <path class="cls-3" d="M3.8,276.7c0,.1,0,.3-.1.4.2.3.3.6.4.9,0-.4-.2-.8-.3-1.3h0Z"/>
      <path class="cls-3" d="M2,275.7l.3-1.8c0,.4-.2,1-.3,1.8Z"/>
      <path class="cls-3" d="M1,178.2l-.4-1.1c0,1.7.2.9.4,1.1Z"/>
      <path class="cls-3" d="M6.2,404.5c.2-1.2.2-2.1.3-2.9-.2,1.4-.6,2.5-.3,2.9Z"/>
      <path class="cls-3" d="M6.1,217.5c0-.6-.2-.8-.3-.8,0,.6.2.9.3.8Z"/>
      <path class="cls-3" d="M6.5,398.2c0,.2,0,.4,0,.6,0,.9.1,1.7,0,2.8.2-1,.3-2.2,0-3.4Z"/>
      <path class="cls-3" d="M1.4,45.1c0-.1,0-.2,0-.3,0,0,0,.1,0,.3Z"/>
      <path class="cls-3" d="M5.8,6.3c0,.4,0,1,0,1.6,0-.3,0-.8,0-1.6Z"/>
      <path class="cls-3" d="M6.6,430c0,.9,0,.1,0,0h0Z"/>
      <path class="cls-3" d="M4.9,434.2c0-.2-.1-.3-.2-.3,0,0,.2.2.2.3Z"/>
      <path class="cls-3" d="M3.8,389.5h0c0,.2,0,.1,0,0Z"/>
      <path class="cls-3" d="M6.4,431.3c0-.3,0-.7.1-1.1,0,.2,0,.5-.1,1.1Z"/>
      <path class="cls-3" d="M6.6,431.2c0,.3,0,.5,0,.8,0,.1.1,0,0-.8Z"/>
      <path class="cls-3" d="M6.6,428.8c0,.5,0,1,0,1.4,0-.2,0-.2,0-.2,0-.3,0-.6,0-1.2h0Z"/>
      <path class="cls-3" d="M2.5,116.4c0,0,0-.1,0-.2-.2-.9-.2-.5,0,.2Z"/>
      <path class="cls-3" d="M1.8,323s0,0,0,.1c0,0,0,0,0-.1h0Z"/>
      <path class="cls-3" d="M1.5,319.9c.5,1.3.5,2.1.4,3.1l1.3-1-1.6-2.1h0Z"/>
      <path class="cls-3" d="M1.4,198.8l-.4,2.2c-.6-2.7-.4-4.6-1-2.5,1.4.3.1,8.5,1.5,8.8l-.3,1.4c0-.4,0-.5,0-.9-.6,2.8,1,2.1.8,5.7-.1,1.3-.3,2.1-.5,1.3l.3,2.8c0,.8-.3.6-.2-.2v4.3c.1,0,0,0,0,0,.2.6.5,2,.7,2.7-.2,1.1-.1-.5-.3-.3l.3,2.4c-.3,1-.7-1-.6-2.6-1.4,2.2.3,2-.4,6.8l-.2-2.3c-.8,1.4-.5,3.2-1,5.7.2-.6,1.2-5.1,1.5-2.5-.1.7-.1,1.7.1,3.1-.5,0-.4,1.4-.3,3.1h-.6c.2,1.7.5,1.6.8,2.7,0,2-.6,2.5-1,3-.1,3.3.8-2.3.9,1.6-.2,2.7,0,4.7.4,7.9-.2,1.9-.4-.3-.6.4l.5,1.7c0,.4-.2.3-.2.2.2,1.4.6.1.8,2.4.7.6-1,4.6-.2,7.4-.2.7-.4-.3-.6-.1.5,3.8.4,3.3,1.1,6.4l-.4,2.7c.5-2,1,.5,1.5,2.7.2-.7.4-1.3.5-1.7l.3,3.5c-.1.4-.3,0-.6-.5,0,.2,0,.5.2.6-.2,1.3-.6.6-1-.3.1-.4.3-.8.4-1.3-.4-.9-.8-1.7-1.2-1.5,0,.2.1.7.2,1.2-.1-.2-.2-.4-.3-.3,0,.1,0,.5.2,1.1l-.7.8.3.2-.5,4.6c.7,3.3,1.8,6.1,2.1,11.3-.5-1.3-.9-.3-1.5-.3.7-1.4-.3-4-.2-6.7,0,1.4-.4,1.1-.5.7l.6,4.8c-.5-.1-.4,1-.6,2.3,1-.9.7,3.6,1,5.5-.3.1-.7-.3-.6-2.7-.8,2.6,1.2,3.4.5,6,0-.6,0-.9-.1-1.1.3,1.4,0,4.7-.2,3.9v-.6c-.1,3.9,0,11.8.8,12.3-.1,0-1-.5-1.2-.7l2.9,6.9c-.7-.6-2.5,1.7-2.9-1.5-.1.9-.2,2.1,0,4,0-.6,1.1-1.6,1.1-.7-.8,2.4-.4,1.6-1.1,4.5.2-.9,1.3.1,1.3,1.6-.2-.2-1.1.1-1.2-.4l1.1,3.7c-.2-.9-1-.2-1.3.7.2-.4,0,3.2,0,4.2l.3-1.6c-.2,4.2,1.6,4.1,1.5,8.3-.2-.5-1.4-1.2-1.6.9.6,1,2.8,4.3,3.2,8l-.3.7.4,2.8c-.9-1.8-2.7-6.7-3.4-9.4-.3,1.6-.4.4-.4,2.8-.3.8-.5-1.3-.5-2l-.2,5.5c.7-.2.7,4.2,1.2,4l-.7-5.9c.7-.2,1.9,3.4,1.8,7.3-.3,1-1.2-.7-1.4-.7.2.5.4,3.7.3,4l-.4-1.6c-.2,2.1.9,3.5.2,6.1,0,.9-.9,2.7-.5,2.8.8-1.5,3.1-1.7,3.7-.8,0,.3-.7,4.7-1.1,5.7-.6,1.5-1.4-2.2-2-1,.2,0,.4.9.5,1.2-.2.9-.6-.4-.5,1.6.7.3,0,4.1.6,1,.2,2-.1,2.1-.1,4.5.4-.7,1.5,2.1,1.7,4.1-.2-.1-.4.3-.5.5,0,4.1-.4,6.3-.4,10.1-.2.4-.4,2.2-.7,1.4.1.5.3,1,.4,2.2-.6,2.3,0-2.6-.8-.9.4.2.5,3,.8,4.7.6-.5.1-3.9-.1-5.5.8,0,1.7,2.9,2.1,6.9.2,3.2-.6,1.4-.4,1.9-.2,5.9,1.5,5.1.9,10-.5,2-1.1,0-1.5.5-.2-2.6.3-4,.3-5.7l-.2,2.1c-.2-.8-.3-2.5-.2-3.5-.5,1.6,0,10-.5,14.6.2.8.4,2.2.6,1.6v-1.5c.3-1.3.5,2.7.7.9.3,1.9.8,4.1.5,6.9l-.6.5c.2,0,.4-1.8.2-2.6.3,1.1-.8,4.2,0,5.5l.4-1.9c.3,2,1,4.4.8,6.8.6-1.1,0-.6.6-2.3-.9,1.5,0-6.2-.9-3.8.8-1.8.3-3.1,1.1-5.4-.2,0-.4.8-.3-1.2,0,0-.1-.3-.2-.4,0,0,0,0,0-.1,0,0,0,0,0,.1,0,0,0-.1,0,0,0,.5-.2.9-.3,1-.5-1-.4-4.2-.7-5.3,0-1.2.2.5.4-.2l-.4-1.6c.4-.2.8-3.2,1-.4v-2.6c.3-1.5.4-3.6.2-4.9,0-1.2-.5-3.1-.2-2l-.3-4h.1c0-4-.7-8.2,0-12.7-.1-1.3-.2-2.7-.1-4.9l.4-.4c-.1-1.7.4-5.1,0-5.9,1-1.8.2-8.3.4-11.3h-.5c0-2.2-.1-4.2-.3-6.8l-.4.2c-.4-2.2.3-5.7.3-9.2.2.2.1,1.1,0,1.8,1-4.2-.7-8.9,0-12.7-.2-.9-.1-1.6,0-2.3,0,0,0,.2,0,.2v-.4c0-.4.2-.8.2-1.3-.1.4-.2.8-.2,1.1,0-.7,0-1.8-.2-2.9l.5-.5c0,0,0-.2,0-.3.2-1.1-.2-.9-.6-.3,0-.5-.2-1-.3-1.4.8-.9-.3-2.9.6-4-.4-.7-.3-5.5-1.2-6,.1,0,.2-.4.2.2,0-1.2.2-2.4,0-3.5l.6-.5-.8-2.6c.4-1.6.6-2.3,1.1-.7-.7-3.9-.3-3.1-1-6.4l.4.2c0-1.2-.6-3-.2-3.8.8-2.6,0-13,.8-19.7-1.2,1.3.5-3.1-.4-3.4.3-.4.4-1.3.7-.2-.3-3.4.4-5.2-.3-7.5.3-.4.4.7.6.4,0-.3-.2-1.1,0-1.5.2-.4.2.5.3,1,0-3.5-.9-3.9-1.7-4.1.4-1.8.3-2.7-.2-3.9.3-.6.5-1.7.6.5,0-1.2.4-7.5-.3-7.6.2-.4,0-1.7,0-2,0-2.8,0-3,0-5.7v.7c-.9-1.1-.3-2.3-.4-4.4h0c.6-4.9-.3-2.1.4-7l-.5.3c-1-.5.6-4.4.2-7.2l-.3,1c-.3-1.6,1.4-4.4,1.5-5.9,0-.3.1.5.2,1,.6-4.1-.6-.5-.8-3.6.3-.6.9.7.9-1.3.3-1-1.1-6-.4-8.8-.3.6-.5,1.2-.7-.2,0-2.2,1-5.9.2-7.9,0-.3.1-.4.2-.4-.2-1.7-.3-5.4-.8-6.4,1.7-1.5-.8-10.4.7-10.3v-5.1c0,0,0,.1,0,.1,0-3.3-.3-4.4-.6-5.6,0-.8.2-.2.3-.1.3-4.8.2-5.3-.5-9.3l.5-.4c-.3-1.1.8-6.9.2-11.6,0,0,.2.1.2.5-.6-5.3,1.4-12.6-.4-14.6l-.4-3.5c-.1,4.5-.8-.7-1.1,1.2-.1-1.8.5-4.6.6-2.4v.3c.8.8.2-5.6.9-5.5,0-8.9.5-17.5.5-25.8l-.7,1v-2.9c.2-.8.6-1,.6,1,.4-1.1-.3-3.5-.5-3.5.3-4,.8,1.6.9.3v-1.7c0,0-.1.4-.1.4-.3-1.4-.6-1.5-.6-4,.2-1.6.4-.8.5-1.4,0,0,0-.2,0-.9v-3.7c0,0-.5,1.5-.5,1.5-.3-1.6,0-3.4-.6-1.7,1-2.5.4-13.6.7-15.2-.4-2.3-.4-4.5-.4-7.3-.1.7-.8,1.1-.7-1.3,1.3.9.6-4.4,1.6-6.3-.6,1.7-.2-6.8-1.1-4.1.1-2,.5-.1.8-1.6-.5-4.8.3-10.5.2-16.3-.2,0-.4.9-.7-.4l.9-3.1c0-1.2-1-1.1-.4-3.2-.2.3-.4.7-.4,0,.9-11.5-.7-23.5.9-35.2-.3,1.6-.4.5-.4-.7,0,.8-.4,0-.7.1l.7-4.9c-.7-.9,0-5.2-.7-5.8v1.5c-.6-2.1-1.5,2.9-2.5,2.6.8,2.3-1.3,6.1,0,9.9-.2.8-.3-.7-.5-.3.4,1,.5,2.1.3,4.3v-.2c0,6-.4,8.6-.7,15.4l.5-.5c0,1.5-.2,1.8-.3,2.4.7,1.7,0-4.1.8-2.6-1,1.9,0,10.3-1.1,11.6,0,2.2.6-.7.5,1.6l-.3.6.4.6c0,1.5-.4,2.2-.7,2.3,0-.4,0-1,0-1.4-.4,1.9.1,5.4,0,6l.2-2.1c.3,6.1-.1,13.6.5,19.5l.2-.4c.4,4.5-.2,3.6,0,8.6v-.2c.2,1,.3,2.3.3,3.7-.3-1.3-.5,2.4-.8.7.4,4.9.4,2.4,1.2,5.7l-.4.7c.3,1.1.5,1.2.6,3.7-.3-2-.6,1.6-1-.7-.8,5.2.8,7.7-.4,10.1,1,2.4.6-4.5.8-3.2.3-1.1.8,2,.7,3.6,0,1.7-1.3,2.8-1.3,7,0-.4,0-.4,0-.9-.3,1.6.4,3.1,0,5,.6,1.1,0,2.5.8,2.8l-.2-3.8c.2,2.2,1.1,4.2.7,7.8-.2-.3-.4-1.3-.5-2.1-.2,1,.2,2,0,3.1-.8-.3-.2-4.6-.8-7-.3,1.1.6,4.4-.3,3.2,1.1,1.7-.1,4.1.7,6.9l-.5-.2c0,.4.3,1.4.3,2.2l-.6-1.5c.5,2.3-.5,4.4-.2,6.6,0-4.6.6-1,.9-3,.6,5.7-1.2,3.3-1,9.6,0-.9.3-3.2.5-1.9-.1,1.2-.3,2.8-.5,3.5.1,4.2.5-.6.8,1.1-.6,1.4.2,2.1.4,3.9h-.5c-.3,4.8,1,1.3.6,5.6l-.7-1.8.2,2.3-.6-.5c.4,2.4.3,3.2.1,5.6.3-.6.9.3.9,2.4-.3,1.4-.5-.8-.4,2.2-.3-.7-.7-1.4-.2-2.7-.2-.1-.3-.7-.5-.8-.3,1.6,0,3.9,0,5,0-.4,0-.9.1-1.2l.7,4.4c-.2.7-.3.1-.5-.4,0,.9.3,1.5.3,2.8-.4-.3-.8-.3-1-2.1l.4,4.1c-.2.3-.5,2.1-.6,1.6-.2,2.3.8,5.6.5,8.7,0,.2.1.5.2,1.1,0,2.9-.6,5.4,0,8.8l-.7,1.9c.2,2.7.9-2.6,1.1,1.8.2,3.1-.6,1.2-.8,2.3.3,1.6,1.1,4.3.5,7.2-.1-1,0-1.7,0-2.6h0ZM1.7,231.6c-.1-.6-.4-1.9-.1-2.4.5.7.3,1.3.1,2.4ZM2.8,281.5c-.2-.5,0-1.2,0-2,0,.6,0,1.3,0,2ZM6.2,420.5s0,0,0,0c.2-1.4.1-.9,0,0ZM6,423.4c0,.3.1.3.2.2-.1-.2-.1-.9,0-1.6-.1.2-.2.6-.1,1.5h0ZM5.8,107.1v.6c-.3-1.3-.1-.9,0-.6Z"/>
      <path class="cls-3" d="M2.2,275.8c0-.2.2-.2.3-.3,0-.3-.2-.3-.3.3Z"/>
      <path class="cls-3" d="M1.1,178.4h0c0-.2,0-.2,0-.2v.2c0,0,0,0,0,0Z"/>
      <path class="cls-3" d="M1.9,377.8c0-.6.2-.9.2-1.2-.1,0-.2.2-.2,1.2Z"/>
      <path class="cls-3" d="M6.8,439v-1.9c-.1.9-.2,1.2-.3,1.7.1,0,.3-.4.3.2h0Z"/>
      <path class="cls-3" d="M3.8,455.4c0,.3,0,.6,0,.9h.2c0-1.2-.2-2.1-.3-.8h0Z"/>
      <path class="cls-3" d="M5.2,440.8c-.4.2-.3,1.3-.2,2.7v-.2c.6.4.4-1,.2-2.4Z"/>
      <path class="cls-3" d="M5,443.7c0,.4,0,.8,0,1.2.2.2,0-.5,0-1.2Z"/>
      <path class="cls-3" d="M6.2,427.2c0,.6.5.4.3.7.5.7-.6-4.2-.3-.7Z"/>
      <polygon class="cls-3" points="3.9 441.8 4.4 441.4 4 440.6 3.9 441.8"/>
      <path class="cls-3" d="M4.2,431.4v2.1c0,0,0,.2,0,.6,0-1.3.1-2.7,0-2.7Z"/>
      <path class="cls-3" d="M4.3,434.1c0,.7,0,1.3,0,1.7,0-.4,0-1.2,0-1.7Z"/>
      <polygon class="cls-3" points="3.7 439 3.8 438.3 3.8 436.8 3.7 439"/>
      <path class="cls-3" d="M4.3,408.7v-2.3c-.3-.2-.4.4-.3,1.3.1.6.2,1.4.3,1Z"/>
      <path class="cls-3" d="M3,415.7c0-.6.2-.7.4-1h-.6c0,0,.2,1,.2,1h0Z"/>
      <path class="cls-3" d="M2.8,409c-.2-.2-.5-3.3-.5-.4.2.2.3,2.5.5.4Z"/>
      <polygon class="cls-3" points="3.6 374.2 3.6 374.8 4.6 374.7 3.6 374.2"/>
      <path class="cls-3" d="M1.2,343.6c-.2,2.7.6.6.3,3.1.2.6.2-2,.5-1.4-.2-1.6-.1-2.5-.8-1.8Z"/>
      <path class="cls-3" d="M1.9,345.4c0,.3,0,.5.2.8,0-.5-.1-.7-.2-.8Z"/>
      <polygon class="cls-3" points="6.3 -.2 6.5 -1.9 6.2 -.8 6.3 -.2"/>
      <path class="cls-3" d="M5.6-3.5l.7-.4-.6-1.1c0,.4,0,1.2,0,1.5Z"/>
      <path class="cls-3" d="M.4,236.5h.2c.2-.1.2-.6.2-1.4l-.4,1.4h0Z"/>
      <polygon class="cls-3" points=".9 212.7 .8 213.1 1.4 212.3 .9 212.7"/>
      <path class="cls-3" d="M.1,192.7c0,.8.1,1.8,0,2.6-.1-1.8.6-2.8,0-2.6Z"/>
      <path class="cls-3" d="M46.1,524.3c0,.8.4.5.5.6,0-1.3-.6-.6-.5-.6Z"/>
      <polygon class="cls-3" points="45.2 511.4 45.3 511.6 44.9 509.7 45.2 511.4"/>
      <path class="cls-3" d="M45.2,499.3c-.7,1.1.1,4.4-.1,6.5l-.2.4.6,1c0-2.6-.5-6-.3-7.9Z"/>
      <path class="cls-3" d="M46.7,492.9c-.3.4-.2-1.4,0,1.5,0-.1,0-.2,0-.3,0-.3,0-.6,0-1.2Z"/>
      <path class="cls-3" d="M46.7,494.1c0,1.3.2-.8,0,0h0Z"/>
      <path class="cls-3" d="M46.5,488.2l.2,1.7c.2-.4.2-1.8.3-1.3-.1-1.7-.3-1.4-.6-.4Z"/>
      <path class="cls-3" d="M46,486.6v.9c.2-.2.2-.4,0-.9Z"/>
      <path class="cls-3" d="M46.3,489.4l-.2-1.8c-.1.2-.3.3,0,.8-.2-.2,0,.2.1,1h0Z"/>
      <path class="cls-3" d="M46.2,490.4c-.2.9-.2,2.1-.5.5,0,3.2.6,2.7.5-.5Z"/>
      <path class="cls-3" d="M44.4,498.7l-.2,1.3.2,1.1c-.1-.5.2-2.4,0-2.3h0Z"/>
      <path class="cls-3" d="M46.9,477.8c-.2-.1-.4.6-.6.7l.2,1.2c0-.6.2-1.8.4-1.9h0Z"/>
      <path class="cls-3" d="M46.3,478.5l-.3-1.8c0,1.7,0,2,.3,1.8Z"/>
      <polygon class="cls-3" points="45.2 486.3 45.8 489.4 45.2 485.8 45.2 486.3"/>
      <polygon class="cls-3" points="46.9 470.7 47.3 471.8 46.8 469.9 46.9 470.7"/>
      <path class="cls-3" d="M46.9,466c.3.8.5-1.1.7-.2,0-1.3-.3-2.4-.5-3.3.1,1,0,2.1-.1,3.6Z"/>
      <path class="cls-3" d="M46.7,460.8c0,.5.2,1.1.3,1.6,0-.6-.2-1.1-.3-1.6Z"/>
      <path class="cls-3" d="M46.1,473.5c0-.1.3-.4.4-1.5l-.4.7v.7Z"/>
      <path class="cls-3" d="M46.1,472.8h0c0-.8,0-1.4,0-1.6,0,.2,0,.7,0,1.6h0Z"/>
      <path class="cls-3" d="M46.1,473.7v-.2c0,0,0,.1,0,.2Z"/>
      <path class="cls-3" d="M45.6,481.5c-.2-1.1-.5-3.4-.9-1.2.3.8.5-.5.9,1.2Z"/>
      <path class="cls-3" d="M45.6,474.6v2s.2-.4.3.1l-.3-2.1h0Z"/>
      <polygon class="cls-3" points="45.5 473.6 45.6 474.6 45.6 473.8 45.5 473.6"/>
      <path class="cls-3" d="M46.3,464.2c-.2-.8-.2-1.8-.2-2.8,0,1.1-.1,2.3-.1,3.4.1.2.4.6.4-.6Z"/>
      <path class="cls-3" d="M46.2,468.3c0,0,0-.1,0-.2,0,.1,0,.2,0,.2Z"/>
      <path class="cls-3" d="M46.1,451c0,0,0,.1,0,.2,0,0,0,0,0,0v-.2h0Z"/>
      <path class="cls-3" d="M45.8,464.9c0,.8,0,1.4.2,1.8,0-.6,0-1.3,0-2,0,0,0,0,0,.2h0Z"/>
      <path class="cls-3" d="M46.5,457.9c0,.4-.2.9-.2,1.5.1-.4.3-1.3.2-1.5Z"/>
      <path class="cls-3" d="M46.3,467.9s0,0,0,.1c0-.3,0-.2,0-.1Z"/>
      <path class="cls-3" d="M46.3,467.9c0-.4-.2-.8-.3-1.1,0,.5,0,1,.1,1.4,0-.1,0-.2.1-.3h0Z"/>
      <path class="cls-3" d="M43.3,447.9c.4.2.8,2.4.3,4.3.3,1.9,1.6.7,2.3-1-.2,0-.3,0-.6-2-.2.7-.5,4.3-.9,2.7-.2-2.6.1-2.1.3-3.4-.5,1.1-.7-3.3-1.4-2.7l.3,2.3c-.1,0-.3-.8-.4-.2h0Z"/>
      <path class="cls-3" d="M46,454.9v.8c.1-.9.3-1.6.6-2.8-.2-1.3-.3-1.6-.5-1.7v3.9c0,0-.1-.3-.1-.3h0Z"/>
      <path class="cls-3" d="M46,459.3c-.4-.6-.6-2.5-1.1-1.4,0,2.4.4,1.6.5,3-.1-3.8.2,1.1.5-1.6,0,.7,0,1.4.1,2,0-.7.1-1.3.2-2,0,0,0,0,0,0h0c0,.2,0,.2,0,0h0c0-.1-.1-.2-.2-.3,0-1.1.1-.2.2.2,0,0,0,0,0,0h0s-.2-3.8-.2-3.8c0,.8,0,1.8,0,3.6h0Z"/>
      <path class="cls-3" d="M43.8,478.3c0-.1,0-.1,0-.1,0-.2,0-.3,0,.1Z"/>
      <path class="cls-3" d="M44.1,476.7c0,.3.2.5.2,1.4-.1.8-.2,0-.3,0,.1.5.3,1.9.5.2v-.3c0-1.5.6-3.5.7-3.2-.4.4-.7.8-1,1.9h0Z"/>
      <path class="cls-3" d="M44.9,467.9l-.2-3.2-.4,1.6h.2c0,1.7.2,1.3.4,1.6Z"/>
      <polygon class="cls-3" points="46.3 450.6 46.7 451.1 46.1 449.2 46.3 450.6"/>
      <polygon class="cls-3" points="46.2 446.5 46.6 446.7 46.4 445.6 46.2 446.5"/>
      <path class="cls-3" d="M41.3,214.9v-.9c0,.4,0,.7,0,.9Z"/>
      <path class="cls-3" d="M41.3,221.6l.2.2c-.1-.3-.2-.4-.2-.2Z"/>
      <path class="cls-3" d="M46.2,345.7c.4-1.4.9-2.9.5-2.7l-.4.4c0,.9,0,1.7,0,2.3h0Z"/>
      <path class="cls-3" d="M43.6,276.7c0,.1,0,.3-.1.4.2.3.3.6.4.9,0-.4-.2-.8-.3-1.3h0Z"/>
      <path class="cls-3" d="M41.8,275.7l.3-1.8c0,.4-.2,1-.3,1.8Z"/>
      <path class="cls-3" d="M40.8,178.2l-.4-1.1c0,1.7.2.9.4,1.1Z"/>
      <path class="cls-3" d="M46.1,404.5c.2-1.2.2-2.1.3-2.9-.2,1.4-.6,2.5-.3,2.9Z"/>
      <path class="cls-3" d="M45.9,217.5c0-.6-.2-.8-.3-.8,0,.6.2.9.3.8Z"/>
      <path class="cls-3" d="M46.3,398.2c0,.2,0,.4,0,.6,0,.9.1,1.7,0,2.8.2-1,.3-2.2,0-3.4Z"/>
      <path class="cls-3" d="M41.2,45.1c0-.1,0-.2,0-.3,0,0,0,.1,0,.3Z"/>
      <path class="cls-3" d="M45.6,6.3c0,.4,0,1,0,1.6,0-.3,0-.8,0-1.6Z"/>
      <path class="cls-3" d="M46.4,430c0,.9,0,.1,0,0h0Z"/>
      <path class="cls-3" d="M44.7,434.2c0-.2-.1-.3-.2-.3,0,0,.2.2.2.3Z"/>
      <path class="cls-3" d="M43.6,389.5h0c0,.2,0,.1,0,0Z"/>
      <path class="cls-3" d="M46.2,431.3c0-.3,0-.7.1-1.1,0,.2,0,.5-.1,1.1Z"/>
      <path class="cls-3" d="M46.4,431.2c0,.3,0,.5,0,.8,0,.1.1,0,0-.8Z"/>
      <path class="cls-3" d="M46.4,428.8c0,.5,0,1,0,1.4,0-.2,0-.2,0-.2,0-.3,0-.6,0-1.2h0Z"/>
      <path class="cls-3" d="M42.4,116.4c0,0,0-.1,0-.2-.2-.9-.2-.5,0,.2Z"/>
      <path class="cls-3" d="M41.7,323s0,0,0,.1c0,0,0,0,0-.1h0Z"/>
      <path class="cls-3" d="M41.3,319.9c.5,1.3.5,2.1.4,3.1l1.2-1-1.6-2.1h0Z"/>
      <path class="cls-3" d="M41.2,198.8l-.4,2.2c-.6-2.7-.4-4.6-1-2.5,1.4.3.1,8.5,1.5,8.8l-.3,1.4c0-.4,0-.5,0-.9-.7,2.8,1,2.1.8,5.7,0,1.3-.3,2.1-.5,1.3l.3,2.8c0,.8-.3.6-.2-.2v4.3c.1,0,0,0,0,0,.2.6.5,2,.7,2.7-.2,1.1-.1-.5-.3-.3l.3,2.4c-.3,1-.7-1-.6-2.6-1.4,2.2.3,2-.5,6.8l-.2-2.3c-.8,1.4-.5,3.2-1,5.7.2-.6,1.2-5.1,1.5-2.5,0,.7-.2,1.7.1,3.1-.5,0-.4,1.4-.3,3.1h-.6c.2,1.7.5,1.6.8,2.7,0,2-.6,2.5-1,3,0,3.3.8-2.3.9,1.6-.2,2.7,0,4.7.4,7.9-.2,1.9-.4-.3-.6.4l.5,1.7c0,.4-.2.3-.2.2.2,1.4.6.1.8,2.4.7.6-1,4.6-.2,7.4-.2.7-.4-.3-.6-.1.5,3.8.4,3.3,1.1,6.4l-.4,2.7c.5-2,1,.5,1.5,2.7.2-.7.4-1.3.5-1.7l.3,3.5c-.1.4-.3,0-.6-.5,0,.2,0,.5.2.6-.2,1.3-.6.6-1-.3.1-.4.3-.8.4-1.3-.4-.9-.8-1.7-1.2-1.5,0,.2.1.7.2,1.2-.1-.2-.2-.4-.3-.3,0,.1,0,.5.2,1.1l-.7.8.3.2-.5,4.6c.7,3.3,1.8,6.1,2.1,11.3-.5-1.3-.8-.3-1.5-.3.7-1.4-.3-4-.2-6.7,0,1.4-.4,1.1-.5.7l.6,4.8c-.5-.1-.4,1-.6,2.3,1-.9.7,3.6,1,5.5-.3.1-.7-.3-.6-2.7-.8,2.6,1.2,3.4.5,6,0-.6,0-.9-.1-1.1.3,1.4,0,4.7-.2,3.9v-.6c-.1,3.9,0,11.8.8,12.3-.1,0-1-.5-1.2-.7l2.9,6.9c-.7-.6-2.5,1.7-2.9-1.5,0,.9-.2,2.1,0,4,0-.6,1.1-1.6,1.1-.7-.8,2.4-.4,1.6-1.1,4.5.2-.9,1.3.1,1.3,1.6-.2-.2-1.1.1-1.2-.4l1.1,3.7c-.2-.9-1-.2-1.3.7.2-.4,0,3.2,0,4.2l.3-1.6c-.2,4.2,1.6,4.1,1.5,8.3-.2-.5-1.4-1.2-1.6.9.6,1,2.8,4.3,3.2,8l-.3.7.4,2.8c-.9-1.8-2.7-6.7-3.4-9.4-.3,1.6-.4.4-.4,2.8-.3.8-.5-1.3-.5-2l-.2,5.5c.7-.2.7,4.2,1.2,4l-.7-5.9c.7-.2,1.9,3.4,1.8,7.3-.3,1-1.2-.7-1.4-.7.2.5.4,3.7.3,4l-.4-1.6c-.2,2.1.9,3.5.2,6.1,0,.9-.9,2.7-.5,2.8.8-1.5,3.1-1.7,3.7-.8,0,.3-.7,4.7-1.1,5.7-.6,1.5-1.4-2.2-2-1,.2,0,.4.9.5,1.2-.2.9-.6-.4-.5,1.6.7.3,0,4.1.6,1,.2,2-.1,2.1-.1,4.5.4-.7,1.5,2.1,1.7,4.1-.2-.1-.4.3-.5.5,0,4.1-.4,6.3-.4,10.1-.2.4-.4,2.2-.7,1.4.1.5.3,1,.4,2.2-.6,2.3,0-2.6-.8-.9.4.2.5,3,.8,4.7.6-.5.1-3.9-.1-5.5.8,0,1.7,2.9,2.1,6.9.2,3.2-.5,1.4-.4,1.9-.2,5.9,1.5,5.1.9,10-.5,2-1.1,0-1.5.5-.2-2.6.3-4,.3-5.7l-.2,2.1c-.2-.8-.3-2.5-.2-3.5-.5,1.6,0,10-.5,14.6.2.8.4,2.2.6,1.6v-1.5c.3-1.3.5,2.7.7.9.3,1.9.8,4.1.5,6.9l-.6.5c.2,0,.4-1.8.2-2.6.3,1.1-.8,4.2,0,5.5l.4-1.9c.3,2,1,4.4.8,6.8.6-1.1,0-.6.6-2.3-.9,1.5,0-6.2-.9-3.8.8-1.8.3-3.1,1-5.4-.2,0-.4.8-.3-1.2,0,0-.1-.3-.2-.4,0,0,0,0,0-.1,0,0,0,0,0,.1,0,0,0-.1,0,0,0,.5-.2.9-.3,1-.5-1-.5-4.2-.7-5.3,0-1.2.2.5.5-.2l-.4-1.6c.5-.2.8-3.2,1-.4v-2.6c.3-1.5.4-3.6.2-4.9,0-1.2-.5-3.1-.2-2l-.3-4h.1c0-4-.7-8.2,0-12.7-.1-1.3-.2-2.7-.1-4.9l.4-.4c-.1-1.7.4-5.1,0-5.9,1-1.8.2-8.3.4-11.3h-.5c0-2.2-.1-4.2-.3-6.8l-.5.2c-.4-2.2.3-5.7.3-9.2.2.2.1,1.1,0,1.8,1-4.2-.7-8.9,0-12.7-.2-.9-.1-1.6,0-2.3,0,0,0,.2,0,.2v-.4c0-.4.2-.8.2-1.3-.1.4-.2.8-.2,1.1,0-.7,0-1.8-.2-2.9l.5-.5c0,0,0-.2,0-.3.2-1.1-.2-.9-.6-.3,0-.5-.2-1-.3-1.4.8-.9-.3-2.9.6-4-.4-.7-.3-5.5-1.2-6,.1,0,.2-.4.2.2,0-1.2.2-2.4,0-3.5l.6-.5-.8-2.6c.4-1.6.6-2.3,1.1-.7-.7-3.9-.3-3.1-1-6.4l.4.2c0-1.2-.5-3-.2-3.8.8-2.6,0-13,.8-19.7-1.2,1.3.5-3.1-.4-3.4.3-.4.4-1.3.7-.2-.3-3.4.4-5.2-.3-7.5.3-.4.4.7.6.4,0-.3-.2-1.1,0-1.5.2-.4.2.5.3,1,0-3.5-.9-3.9-1.7-4.1.4-1.8.3-2.7-.2-3.9.3-.6.5-1.7.6.5,0-1.2.4-7.5-.3-7.6.2-.4,0-1.7,0-2,0-2.8,0-3,0-5.7v.7c-.9-1.1-.3-2.3-.4-4.4h0c.6-4.9-.3-2.1.4-7l-.5.3c-1-.5.6-4.4.2-7.2l-.3,1c-.3-1.6,1.4-4.4,1.5-5.9,0-.3.1.5.2,1,.6-4.1-.6-.5-.8-3.6.3-.6.9.7.9-1.3.3-1-1.1-6-.5-8.8-.3.6-.5,1.2-.7-.2,0-2.2,1-5.9.2-7.9,0-.3.1-.4.2-.4-.2-1.7-.3-5.4-.8-6.4,1.7-1.5-.8-10.4.7-10.3v-5.1c0,0,0,.1,0,.1,0-3.3-.3-4.4-.6-5.6,0-.8.2-.2.3-.1.3-4.8.2-5.3-.5-9.3l.5-.4c-.3-1.1.8-6.9.2-11.6,0,0,.2.1.2.5-.6-5.3,1.4-12.6-.4-14.6l-.4-3.5c-.1,4.5-.8-.7-1.1,1.2-.1-1.8.5-4.6.6-2.4v.3c.8.8.2-5.6.9-5.5,0-8.9.5-17.5.5-25.8l-.7,1v-2.9c.2-.8.6-1,.6,1,.4-1.1-.3-3.5-.5-3.5.3-4,.8,1.6.9.3v-1.7s-.1.4-.1.4c-.3-1.4-.6-1.5-.6-4,.2-1.6.5-.8.5-1.4,0,0,0-.2,0-.9v-3.7c0,0-.5,1.5-.5,1.5-.3-1.6,0-3.4-.6-1.7,1-2.5.4-13.6.7-15.2-.4-2.3-.4-4.5-.4-7.3-.1.7-.8,1.1-.7-1.3,1.3.9.6-4.4,1.5-6.3-.6,1.7-.2-6.8-1.1-4.1.1-2,.5-.1.8-1.6-.5-4.8.3-10.5.2-16.3-.2,0-.4.9-.7-.4l.9-3.1c0-1.2-1-1.1-.4-3.2-.2.3-.4.7-.4,0,.9-11.5-.7-23.5.9-35.2-.3,1.6-.4.5-.4-.7,0,.8-.4,0-.7.1l.7-4.9c-.7-.9,0-5.2-.7-5.8v1.5c-.6-2.1-1.5,2.9-2.5,2.6.8,2.3-1.3,6.1,0,9.9-.2.8-.3-.7-.5-.3.4,1,.5,2.1.3,4.3v-.2c0,6-.4,8.6-.7,15.4l.5-.5c0,1.5-.2,1.8-.3,2.4.7,1.7,0-4.1.8-2.6-1,1.9,0,10.3-1.1,11.6,0,2.2.5-.7.5,1.6l-.3.6.4.6c0,1.5-.4,2.2-.7,2.3,0-.4,0-1,0-1.4-.3,1.9.1,5.4,0,6l.2-2.1c.3,6.1-.1,13.6.5,19.5l.2-.4c.4,4.5-.2,3.6,0,8.6v-.2c.2,1,.3,2.3.3,3.7-.3-1.3-.5,2.4-.8.7.4,4.9.3,2.4,1.2,5.7l-.4.7c.3,1.1.5,1.2.6,3.7-.3-2-.6,1.6-1-.7-.8,5.2.8,7.7-.4,10.1,1,2.4.6-4.5.8-3.2.3-1.1.8,2,.7,3.6,0,1.7-1.3,2.8-1.3,7,0-.4,0-.4,0-.9-.3,1.6.3,3.1,0,5,.6,1.1,0,2.5.8,2.8l-.2-3.8c.2,2.2,1.1,4.2.7,7.8-.2-.3-.4-1.3-.5-2.1-.2,1,.2,2,0,3.1-.8-.3-.2-4.6-.8-7-.3,1.1.6,4.4-.3,3.2,1.1,1.7-.1,4.1.7,6.9l-.5-.2c0,.4.3,1.4.3,2.2l-.6-1.5c.5,2.3-.5,4.4-.2,6.6,0-4.6.6-1,.9-3,.6,5.7-1.2,3.3-1,9.6,0-.9.3-3.2.5-1.9,0,1.2-.3,2.8-.5,3.5,0,4.2.5-.6.8,1.1-.6,1.4.2,2.1.4,3.9h-.5c-.3,4.8,1,1.3.6,5.6l-.7-1.8.2,2.3-.5-.5c.4,2.4.3,3.2.2,5.6.3-.6.9.3.9,2.4-.3,1.4-.5-.8-.4,2.2-.3-.7-.7-1.4-.2-2.7-.2-.1-.3-.7-.5-.8-.3,1.6,0,3.9,0,5,0-.4,0-.9.1-1.2l.7,4.4c-.2.7-.3.1-.5-.4,0,.9.3,1.5.3,2.8-.4-.3-.8-.3-1-2.1l.4,4.1c-.2.3-.5,2.1-.6,1.6-.2,2.3.8,5.6.5,8.7,0,.2.2.5.2,1.1,0,2.9-.6,5.4,0,8.8l-.7,1.9c.2,2.7.9-2.6,1.2,1.8.2,3.1-.6,1.2-.8,2.3.3,1.6,1.1,4.3.5,7.2-.1-1,0-1.7,0-2.6h0ZM41.5,231.6c0-.6-.4-1.9-.1-2.4.5.7.3,1.3.1,2.4ZM42.7,281.5c-.2-.5,0-1.2,0-2,0,.6,0,1.3,0,2ZM46,420.5s0,0,0,0c.2-1.4.1-.9,0,0ZM45.8,423.4c0,.3.1.3.2.2-.1-.2-.1-.9,0-1.6-.1.2-.2.6-.1,1.5h0ZM45.6,107.1v.6c-.3-1.3-.1-.9,0-.6Z"/>
      <path class="cls-3" d="M42,275.8c0-.2.2-.2.3-.3,0-.3-.2-.3-.3.3Z"/>
      <path class="cls-3" d="M40.9,178.4h0c0-.2,0-.2,0-.2v.2c0,0,0,0,0,0Z"/>
      <path class="cls-3" d="M41.7,377.8c0-.6.2-.9.2-1.2-.1,0-.2.2-.2,1.2Z"/>
      <path class="cls-3" d="M46.6,439v-1.9c-.1.9-.2,1.2-.3,1.7.1,0,.3-.4.3.2h0Z"/>
      <path class="cls-3" d="M43.7,455.4c0,.3,0,.6,0,.9h.2c0-1.2-.2-2.1-.3-.8h0Z"/>
      <path class="cls-3" d="M45,440.8c-.4.2-.3,1.3-.2,2.7v-.2c.6.4.4-1,.2-2.4Z"/>
      <path class="cls-3" d="M44.8,443.7c0,.4,0,.8,0,1.2.2.2,0-.5,0-1.2Z"/>
      <path class="cls-3" d="M46.1,427.2c0,.6.5.4.3.7.5.7-.6-4.2-.3-.7Z"/>
      <polygon class="cls-3" points="43.7 441.8 44.2 441.4 43.8 440.6 43.7 441.8"/>
      <path class="cls-3" d="M44.1,431.4v2.1c0,0,0,.2,0,.6,0-1.3.1-2.7,0-2.7Z"/>
      <path class="cls-3" d="M44.1,434.1c0,.7,0,1.3,0,1.7,0-.4,0-1.2,0-1.7Z"/>
      <polygon class="cls-3" points="43.5 439 43.7 438.3 43.7 436.8 43.5 439"/>
      <path class="cls-3" d="M44.2,408.7v-2.3c-.3-.2-.4.4-.3,1.3.1.6.2,1.4.3,1Z"/>
      <path class="cls-3" d="M42.8,415.7c0-.6.2-.7.4-1h-.6c0,0,.2,1,.2,1h0Z"/>
      <path class="cls-3" d="M42.6,409c-.2-.2-.5-3.3-.5-.4.2.2.3,2.5.5.4Z"/>
      <polygon class="cls-3" points="43.4 374.2 43.4 374.8 44.5 374.7 43.4 374.2"/>
      <path class="cls-3" d="M41,343.6c-.2,2.7.6.6.3,3.1.2.6.2-2,.5-1.4-.2-1.6-.1-2.5-.8-1.8Z"/>
      <path class="cls-3" d="M41.8,345.4c0,.3,0,.5.2.8,0-.5-.1-.7-.2-.8Z"/>
      <polygon class="cls-3" points="46.1 -.2 46.3 -1.9 46 -.8 46.1 -.2"/>
      <path class="cls-3" d="M45.4-3.5l.7-.4-.6-1.1c0,.4,0,1.2,0,1.5Z"/>
      <path class="cls-3" d="M40.2,236.5h.2c.2-.1.2-.6.2-1.4l-.4,1.4h0Z"/>
      <polygon class="cls-3" points="40.7 212.7 40.7 213.1 41.2 212.3 40.7 212.7"/>
      <path class="cls-3" d="M39.9,192.7c0,.8.1,1.8,0,2.6-.1-1.8.7-2.8,0-2.6Z"/>
      <path class="cls-3" d="M86,524.3c0,.8.4.5.5.6,0-1.3-.6-.6-.5-.6Z"/>
      <polygon class="cls-3" points="85 511.4 85.2 511.6 84.8 509.7 85 511.4"/>
      <path class="cls-3" d="M85,499.3c-.7,1.1.1,4.4-.1,6.5l-.2.4.6,1c0-2.6-.5-6-.3-7.9Z"/>
      <path class="cls-3" d="M86.6,492.9c-.3.4-.2-1.4,0,1.5,0-.1,0-.2,0-.3,0-.3,0-.6,0-1.2Z"/>
      <path class="cls-3" d="M86.5,494.1c0,1.3.2-.8,0,0h0Z"/>
      <path class="cls-3" d="M86.4,488.2l.2,1.7c.2-.4.2-1.8.3-1.3-.1-1.7-.3-1.4-.6-.4Z"/>
      <path class="cls-3" d="M85.9,486.6v.9c.2-.2.2-.4,0-.9Z"/>
      <path class="cls-3" d="M86.2,489.4l-.2-1.8c-.1.2-.3.3,0,.8-.2-.2,0,.2.1,1h0Z"/>
      <path class="cls-3" d="M86.1,490.4c-.2.9-.2,2.1-.5.5,0,3.2.6,2.7.5-.5Z"/>
      <path class="cls-3" d="M84.3,498.7l-.2,1.3.2,1.1c-.1-.5.2-2.4,0-2.3h0Z"/>
      <path class="cls-3" d="M86.8,477.8c-.2-.1-.4.6-.6.7l.2,1.2c0-.6.2-1.8.4-1.9h0Z"/>
      <path class="cls-3" d="M86.2,478.5l-.3-1.8c0,1.7,0,2,.3,1.8Z"/>
      <polygon class="cls-3" points="85.1 486.3 85.6 489.4 85.1 485.8 85.1 486.3"/>
      <polygon class="cls-3" points="86.8 470.7 87.1 471.8 86.6 469.9 86.8 470.7"/>
      <path class="cls-3" d="M86.7,466c.3.8.5-1.1.7-.2,0-1.3-.3-2.4-.5-3.3.1,1,0,2.1-.1,3.6Z"/>
      <path class="cls-3" d="M86.5,460.8c0,.5.2,1.1.3,1.6,0-.6-.2-1.1-.3-1.6Z"/>
      <path class="cls-3" d="M86,473.5c0-.1.3-.4.4-1.5l-.4.7v.7Z"/>
      <path class="cls-3" d="M86,472.8h0c0-.8,0-1.4,0-1.6,0,.2,0,.7,0,1.6h0Z"/>
      <path class="cls-3" d="M86,473.7v-.2c0,0,0,.1,0,.2Z"/>
      <path class="cls-3" d="M85.4,481.5c-.2-1.1-.5-3.4-.9-1.2.3.8.5-.5.9,1.2Z"/>
      <path class="cls-3" d="M85.4,474.6v2s.2-.4.3.1l-.3-2.1h0Z"/>
      <polygon class="cls-3" points="85.3 473.6 85.4 474.6 85.5 473.8 85.3 473.6"/>
      <path class="cls-3" d="M86.1,464.2c-.2-.8-.2-1.8-.2-2.8,0,1.1-.1,2.3-.1,3.4.1.2.4.6.4-.6Z"/>
      <path class="cls-3" d="M86,468.3c0,0,0-.1,0-.2,0,.1,0,.2,0,.2Z"/>
      <path class="cls-3" d="M85.9,451c0,0,0,.1,0,.2,0,0,0,0,0,0v-.2h0Z"/>
      <path class="cls-3" d="M85.7,464.9c0,.8,0,1.4.2,1.8,0-.6,0-1.3,0-2,0,0,0,0,0,.2h0Z"/>
      <path class="cls-3" d="M86.3,457.9c0,.4-.2.9-.2,1.5.1-.4.3-1.3.2-1.5Z"/>
      <path class="cls-3" d="M86.1,467.9s0,0,0,.1c0-.3,0-.2,0-.1Z"/>
      <path class="cls-3" d="M86.1,467.9c0-.4-.2-.8-.3-1.1,0,.5,0,1,.1,1.4,0-.1,0-.2.1-.3h0Z"/>
      <path class="cls-3" d="M83.2,447.9c.4.2.8,2.4.3,4.3.3,1.9,1.6.7,2.3-1-.2,0-.3,0-.6-2-.2.7-.5,4.3-.9,2.7-.2-2.6.1-2.1.3-3.4-.5,1.1-.7-3.3-1.4-2.7l.3,2.3c-.1,0-.3-.8-.4-.2h0Z"/>
      <path class="cls-3" d="M85.8,454.9v.8c.1-.9.3-1.6.6-2.8-.2-1.3-.3-1.6-.5-1.7v3.9c0,0-.1-.3-.1-.3h0Z"/>
      <path class="cls-3" d="M85.8,459.3c-.4-.6-.6-2.5-1.1-1.4,0,2.4.4,1.6.6,3-.1-3.8.2,1.1.5-1.6,0,.7,0,1.4.1,2,0-.7.1-1.3.2-2,0,0,0,0,0,0h0c0,.2,0,.2,0,0h0c0-.1-.1-.2-.2-.3,0-1.1.1-.2.2.2,0,0,0,0,0,0h0s-.2-3.8-.2-3.8c0,.8,0,1.8,0,3.6h0Z"/>
      <path class="cls-3" d="M83.7,478.3c0-.1,0-.1,0-.1,0-.2,0-.3,0,.1Z"/>
      <path class="cls-3" d="M83.9,476.7c0,.3.2.5.2,1.4-.1.8-.2,0-.3,0,.1.5.3,1.9.5.2v-.3c0-1.5.6-3.5.7-3.2-.4.4-.7.8-1,1.9h0Z"/>
      <path class="cls-3" d="M84.8,467.9l-.2-3.2-.4,1.6h.2c0,1.7.2,1.3.4,1.6Z"/>
      <polygon class="cls-3" points="86.1 450.6 86.6 451.1 85.9 449.2 86.1 450.6"/>
      <polygon class="cls-3" points="86.1 446.5 86.4 446.7 86.2 445.6 86.1 446.5"/>
      <path class="cls-3" d="M81.2,214.9v-.9c0,.4,0,.7,0,.9Z"/>
      <path class="cls-3" d="M81.1,221.6l.2.2c-.1-.3-.2-.4-.2-.2Z"/>
      <path class="cls-3" d="M86,345.7c.4-1.4.9-2.9.5-2.7l-.4.4c0,.9,0,1.7,0,2.3h0Z"/>
      <path class="cls-3" d="M83.4,276.7c0,.1,0,.3-.1.4.2.3.3.6.4.9,0-.4-.2-.8-.3-1.3h0Z"/>
      <path class="cls-3" d="M81.6,275.7l.3-1.8c0,.4-.2,1-.3,1.8Z"/>
      <path class="cls-3" d="M80.7,178.2l-.4-1.1c0,1.7.2.9.4,1.1Z"/>
      <path class="cls-3" d="M85.9,404.5c.2-1.2.2-2.1.3-2.9-.2,1.4-.6,2.5-.3,2.9Z"/>
      <path class="cls-3" d="M85.8,217.5c0-.6-.2-.8-.3-.8,0,.6.2.9.3.8Z"/>
      <path class="cls-3" d="M86.2,398.2c0,.2,0,.4,0,.6,0,.9.1,1.7,0,2.8.2-1,.3-2.2,0-3.4Z"/>
      <path class="cls-3" d="M81,45.1c0-.1,0-.2,0-.3,0,0,0,.1,0,.3Z"/>
      <path class="cls-3" d="M85.4,6.3c0,.4,0,1,0,1.6,0-.3,0-.8,0-1.6Z"/>
      <path class="cls-3" d="M86.2,430c0,.9,0,.1,0,0h0Z"/>
      <path class="cls-3" d="M84.5,434.2c0-.2-.1-.3-.2-.3,0,0,.2.2.2.3Z"/>
      <path class="cls-3" d="M83.5,389.5h0c0,.2,0,.1,0,0Z"/>
      <path class="cls-3" d="M86.1,431.3c0-.3,0-.7.1-1.1,0,.2,0,.5-.1,1.1Z"/>
      <path class="cls-3" d="M86.2,431.2c0,.3,0,.5,0,.8,0,.1.1,0,0-.8Z"/>
      <path class="cls-3" d="M86.2,428.8c0,.5,0,1,0,1.4,0-.2,0-.2,0-.2,0-.3,0-.6,0-1.2h0Z"/>
      <path class="cls-3" d="M82.2,116.4c0,0,0-.1,0-.2-.2-.9-.2-.5,0,.2Z"/>
      <path class="cls-3" d="M81.5,323s0,0,0,.1c0,0,0,0,0-.1,0,0,0,0,0,0Z"/>
      <path class="cls-3" d="M81.2,319.9c.5,1.3.5,2.1.4,3.1l1.2-1-1.6-2.1h0Z"/>
      <path class="cls-3" d="M81,198.8l-.4,2.2c-.6-2.7-.4-4.6-1-2.5,1.4.3.1,8.5,1.5,8.8l-.3,1.4c0-.4,0-.5,0-.9-.7,2.8,1,2.1.8,5.7,0,1.3-.3,2.1-.5,1.3l.3,2.8c0,.8-.3.6-.2-.2v4.3c.1,0,0,0,0,0,.2.6.5,2,.7,2.7-.2,1.1-.1-.5-.3-.3l.3,2.4c-.3,1-.7-1-.6-2.6-1.4,2.2.3,2-.4,6.8l-.2-2.3c-.8,1.4-.5,3.2-1,5.7.2-.6,1.2-5.1,1.6-2.5,0,.7-.2,1.7.1,3.1-.5,0-.4,1.4-.3,3.1h-.6c.2,1.7.5,1.6.8,2.7,0,2-.6,2.5-1,3,0,3.3.8-2.3.9,1.6-.2,2.7,0,4.7.4,7.9-.2,1.9-.4-.3-.6.4l.5,1.7c0,.4-.2.3-.2.2.2,1.4.6.1.8,2.4.7.6-1,4.6-.2,7.4-.2.7-.4-.3-.6-.1.5,3.8.4,3.3,1.1,6.4l-.4,2.7c.5-2,1.1.5,1.5,2.7.2-.7.4-1.3.5-1.7l.3,3.5c-.1.4-.3,0-.6-.5,0,.2,0,.5.2.6-.2,1.3-.6.6-1-.3.1-.4.3-.8.4-1.3-.4-.9-.8-1.7-1.2-1.5,0,.2.1.7.2,1.2-.1-.2-.2-.4-.3-.3,0,.1,0,.5.2,1.1l-.7.8.3.2-.4,4.6c.7,3.3,1.8,6.1,2.1,11.3-.5-1.3-.8-.3-1.5-.3.7-1.4-.3-4-.2-6.7,0,1.4-.4,1.1-.5.7l.6,4.8c-.5-.1-.4,1-.6,2.3,1-.9.7,3.6,1,5.5-.3.1-.7-.3-.6-2.7-.8,2.6,1.2,3.4.5,6,0-.6,0-.9-.1-1.1.3,1.4,0,4.7-.2,3.9v-.6c-.1,3.9,0,11.8.8,12.3-.1,0-1-.5-1.2-.7l2.9,6.9c-.7-.6-2.5,1.7-2.9-1.5,0,.9-.2,2.1,0,4,0-.6,1.1-1.6,1.1-.7-.8,2.4-.4,1.6-1.1,4.5.2-.9,1.3.1,1.3,1.6-.2-.2-1.1.1-1.2-.4l1.1,3.7c-.2-.9-.9-.2-1.3.7.2-.4,0,3.2,0,4.2l.3-1.6c-.2,4.2,1.6,4.1,1.5,8.3-.2-.5-1.4-1.2-1.6.9.6,1,2.8,4.3,3.2,8l-.3.7.4,2.8c-.9-1.8-2.7-6.7-3.4-9.4-.3,1.6-.4.4-.4,2.8-.3.8-.5-1.3-.5-2l-.2,5.5c.7-.2.7,4.2,1.2,4l-.7-5.9c.7-.2,1.9,3.4,1.8,7.3-.3,1-1.2-.7-1.4-.7.2.5.4,3.7.3,4l-.4-1.6c-.2,2.1.9,3.5.2,6.1,0,.9-.9,2.7-.5,2.8.8-1.5,3.1-1.7,3.7-.8,0,.3-.7,4.7-1.1,5.7-.6,1.5-1.4-2.2-1.9-1,.2,0,.4.9.5,1.2-.2.9-.6-.4-.5,1.6.7.3,0,4.1.6,1,.2,2-.1,2.1-.1,4.5.4-.7,1.5,2.1,1.7,4.1-.2-.1-.4.3-.5.5,0,4.1-.4,6.3-.4,10.1-.2.4-.4,2.2-.7,1.4.1.5.3,1,.4,2.2-.6,2.3,0-2.6-.8-.9.4.2.6,3,.8,4.7.6-.5.1-3.9-.1-5.5.8,0,1.7,2.9,2.1,6.9.2,3.2-.6,1.4-.4,1.9-.2,5.9,1.5,5.1.9,10-.5,2-1.1,0-1.5.5-.2-2.6.3-4,.3-5.7l-.2,2.1c-.2-.8-.3-2.5-.2-3.5-.5,1.6,0,10-.5,14.6.2.8.4,2.2.6,1.6v-1.5c.3-1.3.5,2.7.7.9.3,1.9.8,4.1.5,6.9l-.6.5c.2,0,.4-1.8.2-2.6.3,1.1-.8,4.2,0,5.5l.4-1.9c.3,2,1,4.4.8,6.8.6-1.1,0-.6.6-2.3-.9,1.5,0-6.2-.9-3.8.8-1.8.3-3.1,1.1-5.4-.2,0-.4.8-.3-1.2,0,0-.1-.3-.2-.4,0,0,0,0,0-.1,0,0,0,0,0,.1,0,0,0-.1,0,0,0,.5-.2.9-.3,1-.5-1-.4-4.2-.7-5.3,0-1.2.2.5.4-.2l-.4-1.6c.4-.2.8-3.2,1-.4v-2.6c.3-1.5.4-3.6.2-4.9,0-1.2-.5-3.1-.2-2l-.3-4h.1c0-4-.7-8.2,0-12.7-.1-1.3-.2-2.7-.1-4.9l.4-.4c-.1-1.7.4-5.1,0-5.9,1.1-1.8.2-8.3.4-11.3h-.5c0-2.2-.1-4.2-.3-6.8l-.4.2c-.4-2.2.3-5.7.3-9.2.2.2.1,1.1,0,1.8,1-4.2-.7-8.9,0-12.7-.2-.9-.1-1.6,0-2.3,0,0,0,.2,0,.2v-.4c0-.4.2-.8.2-1.3-.1.4-.2.8-.2,1.1,0-.7,0-1.8-.2-2.9l.5-.5c0,0,0-.2,0-.3.2-1.1-.2-.9-.6-.3,0-.5-.2-1-.3-1.4.8-.9-.3-2.9.6-4-.4-.7-.3-5.5-1.2-6,.1,0,.2-.4.2.2,0-1.2.2-2.4,0-3.5l.6-.5-.8-2.6c.4-1.6.6-2.3,1.1-.7-.7-3.9-.3-3.1-1-6.4l.4.2c0-1.2-.6-3-.2-3.8.8-2.6,0-13,.8-19.7-1.2,1.3.5-3.1-.4-3.4.3-.4.4-1.3.7-.2-.3-3.4.4-5.2-.3-7.5.3-.4.4.7.6.4,0-.3-.2-1.1,0-1.5.2-.4.2.5.3,1,0-3.5-.9-3.9-1.7-4.1.4-1.8.3-2.7-.2-3.9.3-.6.5-1.7.6.5,0-1.2.4-7.5-.3-7.6.2-.4,0-1.7,0-2,0-2.8,0-3,0-5.7v.7c-.9-1.1-.3-2.3-.4-4.4h0c.6-4.9-.3-2.1.4-7l-.5.3c-1-.5.6-4.4.2-7.2l-.3,1c-.3-1.6,1.4-4.4,1.5-5.9,0-.3.1.5.2,1,.6-4.1-.6-.5-.8-3.6.3-.6.9.7.9-1.3.3-1-1.1-6-.4-8.8-.3.6-.5,1.2-.7-.2,0-2.2,1-5.9.2-7.9,0-.3.1-.4.2-.4-.2-1.7-.3-5.4-.8-6.4,1.7-1.5-.8-10.4.7-10.3v-5.1c0,0,0,.1,0,.1,0-3.3-.3-4.4-.6-5.6,0-.8.2-.2.3-.1.3-4.8.2-5.3-.5-9.3l.5-.4c-.3-1.1.8-6.9.2-11.6,0,0,.2.1.2.5-.6-5.3,1.4-12.6-.4-14.6l-.4-3.5c-.1,4.5-.8-.7-1.1,1.2-.1-1.8.5-4.6.6-2.4v.3c.9.8.2-5.6.9-5.5,0-8.9.5-17.5.5-25.8l-.7,1v-2.9c.2-.8.6-1,.6,1,.4-1.1-.3-3.5-.5-3.5.3-4,.8,1.6.9.3v-1.7c0,0-.1.4-.1.4-.3-1.4-.6-1.5-.6-4,.2-1.6.4-.8.5-1.4,0,0,0-.2,0-.9v-3.7c0,0-.5,1.5-.5,1.5-.3-1.6,0-3.4-.6-1.7,1-2.5.4-13.6.7-15.2-.4-2.3-.4-4.5-.4-7.3-.1.7-.8,1.1-.7-1.3,1.3.9.6-4.4,1.6-6.3-.6,1.7-.2-6.8-1.1-4.1.1-2,.5-.1.8-1.6-.5-4.8.3-10.5.2-16.3-.2,0-.4.9-.7-.4l.9-3.1c0-1.2-1-1.1-.4-3.2-.2.3-.4.7-.4,0,.9-11.5-.7-23.5.9-35.2-.3,1.6-.4.5-.4-.7,0,.8-.4,0-.7.1l.7-4.9c-.7-.9,0-5.2-.7-5.8v1.5c-.6-2.1-1.6,2.9-2.5,2.6.8,2.3-1.3,6.1,0,9.9-.2.8-.3-.7-.5-.3.4,1,.5,2.1.3,4.3v-.2c0,6-.4,8.6-.7,15.4l.5-.5c0,1.5-.2,1.8-.3,2.4.7,1.7,0-4.1.8-2.6-1,1.9,0,10.3-1.1,11.6,0,2.2.6-.7.5,1.6l-.3.6.4.6c0,1.5-.4,2.2-.7,2.3,0-.4,0-1,0-1.4-.3,1.9.1,5.4,0,6l.2-2.1c.3,6.1-.1,13.6.5,19.5l.2-.4c.4,4.5-.2,3.6,0,8.6v-.2c.2,1,.3,2.3.3,3.7-.3-1.3-.5,2.4-.8.7.4,4.9.3,2.4,1.2,5.7l-.4.7c.3,1.1.5,1.2.6,3.7-.3-2-.6,1.6-1-.7-.8,5.2.8,7.7-.4,10.1,1,2.4.6-4.5.8-3.2.3-1.1.8,2,.7,3.6,0,1.7-1.3,2.8-1.3,7,0-.4,0-.4,0-.9-.3,1.6.3,3.1,0,5,.6,1.1,0,2.5.8,2.8l-.2-3.8c.2,2.2,1.1,4.2.7,7.8-.2-.3-.4-1.3-.5-2.1-.2,1,.2,2,0,3.1-.8-.3-.2-4.6-.8-7-.3,1.1.6,4.4-.3,3.2,1.1,1.7-.1,4.1.7,6.9l-.5-.2c0,.4.3,1.4.3,2.2l-.6-1.5c.5,2.3-.5,4.4-.2,6.6,0-4.6.6-1,.9-3,.6,5.7-1.2,3.3-1,9.6,0-.9.3-3.2.5-1.9,0,1.2-.3,2.8-.5,3.5,0,4.2.5-.6.8,1.1-.6,1.4.2,2.1.4,3.9h-.5c-.3,4.8,1,1.3.6,5.6l-.7-1.8.2,2.3-.6-.5c.4,2.4.3,3.2.2,5.6.3-.6.9.3.9,2.4-.3,1.4-.5-.8-.4,2.2-.3-.7-.7-1.4-.2-2.7-.2-.1-.3-.7-.5-.8-.3,1.6,0,3.9,0,5,0-.4,0-.9.1-1.2l.7,4.4c-.2.7-.3.1-.5-.4,0,.9.3,1.5.3,2.8-.4-.3-.8-.3-1-2.1l.4,4.1c-.2.3-.5,2.1-.6,1.6-.2,2.3.8,5.6.5,8.7,0,.2.2.5.2,1.1,0,2.9-.6,5.4,0,8.8l-.7,1.9c.2,2.7.9-2.6,1.2,1.8.2,3.1-.6,1.2-.8,2.3.3,1.6,1.1,4.3.5,7.2-.1-1,0-1.7,0-2.6h0ZM81.3,231.6c0-.6-.4-1.9-.1-2.4.6.7.3,1.3.1,2.4ZM82.5,281.5c-.2-.5,0-1.2,0-2,0,.6,0,1.3,0,2ZM85.8,420.5s0,0,0,0c.2-1.4.1-.9,0,0ZM85.6,423.4c0,.3.1.3.2.2-.1-.2-.1-.9,0-1.6-.1.2-.2.6-.1,1.5h0ZM85.4,107.1v.6c-.3-1.3-.1-.9,0-.6Z"/>
      <path class="cls-3" d="M81.8,275.8c0-.2.2-.2.3-.3,0-.3-.2-.3-.3.3Z"/>
      <path class="cls-3" d="M80.8,178.4h0c0-.2,0-.2,0-.2v.2c0,0,0,0,0,0Z"/>
      <path class="cls-3" d="M81.6,377.8c0-.6.2-.9.2-1.2-.1,0-.2.2-.2,1.2Z"/>
      <path class="cls-3" d="M86.5,439v-1.9c-.1.9-.2,1.2-.3,1.7.1,0,.3-.4.3.2h0Z"/>
      <path class="cls-3" d="M83.5,455.4c0,.3,0,.6,0,.9h.2c0-1.2-.2-2.1-.3-.8h0Z"/>
      <path class="cls-3" d="M84.9,440.8c-.4.2-.3,1.3-.2,2.7v-.2c.6.4.4-1,.2-2.4Z"/>
      <path class="cls-3" d="M84.7,443.7c0,.4,0,.8,0,1.2.2.2,0-.5,0-1.2Z"/>
      <path class="cls-3" d="M85.9,427.2c0,.6.5.4.3.7.5.7-.6-4.2-.3-.7Z"/>
      <polygon class="cls-3" points="83.5 441.8 84 441.4 83.6 440.6 83.5 441.8"/>
      <path class="cls-3" d="M83.9,431.4v2.1c0,0,0,.2,0,.6,0-1.3.1-2.7,0-2.7Z"/>
      <path class="cls-3" d="M83.9,434.1c0,.7,0,1.3,0,1.7,0-.4,0-1.2,0-1.7Z"/>
      <polygon class="cls-3" points="83.4 439 83.5 438.3 83.5 436.8 83.4 439"/>
      <path class="cls-3" d="M84,408.7v-2.3c-.3-.2-.4.4-.3,1.3.1.6.2,1.4.3,1Z"/>
      <path class="cls-3" d="M82.6,415.7c0-.6.2-.7.4-1h-.6c0,0,.2,1,.2,1h0Z"/>
      <path class="cls-3" d="M82.5,409c-.2-.2-.5-3.3-.5-.4.2.2.3,2.5.5.4Z"/>
      <polygon class="cls-3" points="83.3 374.2 83.3 374.8 84.3 374.7 83.3 374.2"/>
      <path class="cls-3" d="M80.8,343.6c-.2,2.7.6.6.3,3.1.2.6.2-2,.5-1.4-.2-1.6-.1-2.5-.8-1.8Z"/>
      <path class="cls-3" d="M81.6,345.4c0,.3,0,.5.2.8,0-.5-.1-.7-.2-.8Z"/>
      <polygon class="cls-3" points="86 -.2 86.2 -1.9 85.8 -.8 86 -.2"/>
      <path class="cls-3" d="M85.2-3.5l.7-.4-.6-1.1c0,.4,0,1.2,0,1.5Z"/>
      <path class="cls-3" d="M80,236.5h.2c.2-.1.2-.6.2-1.4l-.4,1.4h0Z"/>
      <polygon class="cls-3" points="80.5 212.7 80.5 213.1 81.1 212.3 80.5 212.7"/>
      <path class="cls-3" d="M79.8,192.7c0,.8.1,1.8,0,2.6-.1-1.8.7-2.8,0-2.6Z"/>
      <path class="cls-3" d="M125.8,524.3c0,.8.4.5.5.6,0-1.3-.6-.6-.5-.6Z"/>
      <polygon class="cls-3" points="124.8 511.4 125 511.6 124.6 509.7 124.8 511.4"/>
      <path class="cls-3" d="M124.8,499.3c-.7,1.1.1,4.4-.1,6.5l-.2.4.6,1c0-2.6-.5-6-.3-7.9Z"/>
      <path class="cls-3" d="M126.4,492.9c-.3.4-.2-1.4,0,1.5,0-.1,0-.2,0-.3,0-.3,0-.6,0-1.2Z"/>
      <path class="cls-3" d="M126.4,494.1c0,1.3.2-.8,0,0h0Z"/>
      <path class="cls-3" d="M126.2,488.2l.2,1.7c.2-.4.2-1.8.3-1.3-.1-1.7-.3-1.4-.6-.4Z"/>
      <path class="cls-3" d="M125.7,486.6v.9c.2-.2.2-.4,0-.9Z"/>
      <path class="cls-3" d="M126,489.4l-.2-1.8c-.1.2-.3.3,0,.8-.2-.2,0,.2.1,1h0Z"/>
      <path class="cls-3" d="M125.9,490.4c-.2.9-.2,2.1-.5.5,0,3.2.6,2.7.5-.5Z"/>
      <path class="cls-3" d="M124.1,498.7l-.2,1.3.2,1.1c-.1-.5.2-2.4,0-2.3h0Z"/>
      <path class="cls-3" d="M126.6,477.8c-.2-.1-.4.6-.6.7l.2,1.2c0-.6.2-1.8.4-1.9h0Z"/>
      <path class="cls-3" d="M126,478.5l-.3-1.8c0,1.7,0,2,.3,1.8Z"/>
      <polygon class="cls-3" points="124.9 486.3 125.4 489.4 124.9 485.8 124.9 486.3"/>
      <polygon class="cls-3" points="126.6 470.7 126.9 471.8 126.4 469.9 126.6 470.7"/>
      <path class="cls-3" d="M126.5,466c.3.8.5-1.1.7-.2,0-1.3-.3-2.4-.5-3.3.1,1,0,2.1-.1,3.6Z"/>
      <path class="cls-3" d="M126.4,460.8c0,.5.2,1.1.3,1.6,0-.6-.2-1.1-.3-1.6Z"/>
      <path class="cls-3" d="M125.8,473.5c0-.1.3-.4.4-1.5l-.4.7v.7Z"/>
      <path class="cls-3" d="M125.8,472.8h0c0-.8,0-1.4,0-1.6,0,.2,0,.7,0,1.6h0Z"/>
      <path class="cls-3" d="M125.8,473.7v-.2c0,0,0,.1,0,.2Z"/>
      <path class="cls-3" d="M125.3,481.5c-.2-1.1-.5-3.4-.9-1.2.3.8.5-.5.9,1.2Z"/>
      <path class="cls-3" d="M125.3,474.6v2s.2-.4.3.1l-.3-2.1h0Z"/>
      <polygon class="cls-3" points="125.1 473.6 125.3 474.6 125.3 473.8 125.1 473.6"/>
      <path class="cls-3" d="M126,464.2c-.2-.8-.2-1.8-.2-2.8,0,1.1-.1,2.3-.1,3.4.1.2.4.6.4-.6Z"/>
      <path class="cls-3" d="M125.8,468.3c0,0,0-.1,0-.2,0,.1,0,.2,0,.2Z"/>
      <path class="cls-3" d="M125.7,451c0,0,0,.1,0,.2,0,0,0,0,0,0v-.2h0Z"/>
      <path class="cls-3" d="M125.5,464.9c0,.8,0,1.4.2,1.8,0-.6,0-1.3,0-2,0,0,0,0,0,.2h0Z"/>
      <path class="cls-3" d="M126.2,457.9c0,.4-.2.9-.2,1.5.1-.4.3-1.3.2-1.5Z"/>
      <path class="cls-3" d="M125.9,467.9s0,0,0,.1c0-.3,0-.2,0-.1Z"/>
      <path class="cls-3" d="M125.9,467.9c0-.4-.2-.8-.3-1.1,0,.5,0,1,.1,1.4,0-.1,0-.2.1-.3h0Z"/>
      <path class="cls-3" d="M123,447.9c.4.2.8,2.4.3,4.3.3,1.9,1.6.7,2.3-1-.2,0-.3,0-.6-2-.2.7-.5,4.3-.9,2.7-.2-2.6.1-2.1.3-3.4-.5,1.1-.7-3.3-1.4-2.7l.3,2.3c-.1,0-.3-.8-.4-.2h0Z"/>
      <path class="cls-3" d="M125.6,454.9v.8c.1-.9.3-1.6.6-2.8-.2-1.3-.3-1.6-.5-1.7v3.9c0,0-.1-.3-.1-.3h0Z"/>
      <path class="cls-3" d="M125.7,459.3c-.4-.6-.6-2.5-1.1-1.4,0,2.4.4,1.6.6,3-.1-3.8.2,1.1.5-1.6,0,.7,0,1.4.1,2,0-.7.1-1.3.2-2,0,0,0,0,0,0h0c0,.2,0,.2,0,0h0c0-.1-.1-.2-.2-.3,0-1.1.1-.2.2.2,0,0,0,0,0,0h0s-.2-3.8-.2-3.8c0,.8,0,1.8,0,3.6h0Z"/>
      <path class="cls-3" d="M123.5,478.3c0-.1,0-.1,0-.1,0-.2,0-.3,0,.1Z"/>
      <path class="cls-3" d="M123.8,476.7c0,.3.2.5.2,1.4-.1.8-.2,0-.3,0,.1.5.3,1.9.5.2v-.3c0-1.5.6-3.5.7-3.2-.4.4-.7.8-1,1.9h0Z"/>
      <path class="cls-3" d="M124.6,467.9l-.2-3.2-.4,1.6h.2c0,1.7.2,1.3.4,1.6Z"/>
      <polygon class="cls-3" points="125.9 450.6 126.4 451.1 125.8 449.2 125.9 450.6"/>
      <polygon class="cls-3" points="125.9 446.5 126.3 446.7 126 445.6 125.9 446.5"/>
      <path class="cls-3" d="M121,214.9v-.9c0,.4,0,.7,0,.9Z"/>
      <path class="cls-3" d="M120.9,221.6l.2.2c-.1-.3-.2-.4-.2-.2Z"/>
      <path class="cls-3" d="M125.8,345.7c.4-1.4.9-2.9.5-2.7l-.4.4c0,.9,0,1.7,0,2.3h0Z"/>
      <path class="cls-3" d="M123.2,276.7c0,.1,0,.3-.1.4.2.3.3.6.4.9,0-.4-.2-.8-.3-1.3h0Z"/>
      <path class="cls-3" d="M121.5,275.7l.3-1.8c0,.4-.2,1-.3,1.8Z"/>
      <path class="cls-3" d="M120.5,178.2l-.4-1.1c0,1.7.2.9.4,1.1Z"/>
      <path class="cls-3" d="M125.7,404.5c.2-1.2.2-2.1.3-2.9-.2,1.4-.6,2.5-.3,2.9Z"/>
      <path class="cls-3" d="M125.6,217.5c0-.6-.2-.8-.3-.8,0,.6.2.9.3.8Z"/>
      <path class="cls-3" d="M126,398.2c0,.2,0,.4,0,.6,0,.9.1,1.7,0,2.8.2-1,.3-2.2,0-3.4Z"/>
      <path class="cls-3" d="M120.9,45.1c0-.1,0-.2,0-.3,0,0,0,.1,0,.3Z"/>
      <path class="cls-3" d="M125.2,6.3c0,.4,0,1,0,1.6,0-.3,0-.8,0-1.6Z"/>
      <path class="cls-3" d="M126.1,430c0,.9,0,.1,0,0h0Z"/>
      <path class="cls-3" d="M124.4,434.2c0-.2-.1-.3-.2-.3,0,0,.2.2.2.3Z"/>
      <path class="cls-3" d="M123.3,389.5h0c0,.2,0,.1,0,0Z"/>
      <path class="cls-3" d="M125.9,431.3c0-.3,0-.7.1-1.1,0,.2,0,.5-.1,1.1Z"/>
      <path class="cls-3" d="M126.1,431.2c0,.3,0,.5,0,.8,0,.1.1,0,0-.8Z"/>
      <path class="cls-3" d="M126.1,428.8c0,.5,0,1,0,1.4,0-.2,0-.2,0-.2,0-.3,0-.6,0-1.2h0Z"/>
      <path class="cls-3" d="M122,116.4c0,0,0-.1,0-.2-.2-.9-.2-.5,0,.2Z"/>
      <path class="cls-3" d="M121.3,323s0,0,0,.1c0,0,0,0,0-.1,0,0,0,0,0,0Z"/>
      <path class="cls-3" d="M121,319.9c.5,1.3.5,2.1.4,3.1l1.2-1-1.6-2.1h0Z"/>
      <path class="cls-3" d="M120.8,198.8l-.4,2.2c-.6-2.7-.4-4.6-1-2.5,1.4.3.1,8.5,1.5,8.8l-.3,1.4c0-.4,0-.5,0-.9-.7,2.8,1,2.1.8,5.7,0,1.3-.3,2.1-.5,1.3l.3,2.8c0,.8-.3.6-.2-.2v4.3c.1,0,0,0,0,0,.2.6.5,2,.7,2.7-.2,1.1-.1-.5-.3-.3l.3,2.4c-.3,1-.7-1-.6-2.6-1.4,2.2.3,2-.4,6.8l-.2-2.3c-.8,1.4-.5,3.2-1,5.7.2-.6,1.2-5.1,1.6-2.5,0,.7-.2,1.7.1,3.1-.5,0-.4,1.4-.3,3.1h-.6c.2,1.7.5,1.6.8,2.7,0,2-.6,2.5-1,3,0,3.3.8-2.3.9,1.6-.2,2.7,0,4.7.4,7.9-.2,1.9-.4-.3-.6.4l.5,1.7c0,.4-.2.3-.2.2.2,1.4.6.1.8,2.4.7.6-1,4.6-.2,7.4-.2.7-.4-.3-.6-.1.5,3.8.4,3.3,1.1,6.4l-.4,2.7c.5-2,1.1.5,1.5,2.7.2-.7.4-1.3.5-1.7l.3,3.5c-.1.4-.3,0-.6-.5,0,.2,0,.5.2.6-.2,1.3-.6.6-1-.3.1-.4.3-.8.4-1.3-.4-.9-.8-1.7-1.2-1.5,0,.2.1.7.2,1.2-.1-.2-.2-.4-.3-.3,0,.1,0,.5.2,1.1l-.7.8.3.2-.4,4.6c.7,3.3,1.8,6.1,2.1,11.3-.5-1.3-.8-.3-1.5-.3.7-1.4-.3-4-.2-6.7,0,1.4-.4,1.1-.5.7l.6,4.8c-.5-.1-.4,1-.6,2.3,1-.9.7,3.6,1,5.5-.3.1-.7-.3-.6-2.7-.8,2.6,1.2,3.4.5,6,0-.6,0-.9-.1-1.1.3,1.4,0,4.7-.2,3.9v-.6c-.1,3.9,0,11.8.8,12.3-.1,0-1-.5-1.2-.7l2.9,6.9c-.7-.6-2.5,1.7-2.9-1.5,0,.9-.2,2.1,0,4,0-.6,1.1-1.6,1.1-.7-.8,2.4-.4,1.6-1.1,4.5.2-.9,1.3.1,1.3,1.6-.2-.2-1.1.1-1.2-.4l1.1,3.7c-.2-.9-.9-.2-1.3.7.2-.4,0,3.2,0,4.2l.3-1.6c-.2,4.2,1.6,4.1,1.5,8.3-.2-.5-1.4-1.2-1.6.9.6,1,2.8,4.3,3.2,8l-.3.7.4,2.8c-.9-1.8-2.7-6.7-3.4-9.4-.3,1.6-.4.4-.4,2.8-.3.8-.5-1.3-.5-2l-.2,5.5c.7-.2.7,4.2,1.2,4l-.7-5.9c.7-.2,1.9,3.4,1.8,7.3-.3,1-1.2-.7-1.4-.7.2.5.4,3.7.3,4l-.4-1.6c-.2,2.1.9,3.5.2,6.1,0,.9-.9,2.7-.5,2.8.8-1.5,3.1-1.7,3.7-.8,0,.3-.7,4.7-1.1,5.7-.6,1.5-1.4-2.2-1.9-1,.2,0,.4.9.5,1.2-.2.9-.6-.4-.5,1.6.7.3,0,4.1.6,1,.2,2-.1,2.1-.1,4.5.4-.7,1.5,2.1,1.7,4.1-.2-.1-.4.3-.5.5,0,4.1-.4,6.3-.4,10.1-.2.4-.4,2.2-.7,1.4.1.5.3,1,.4,2.2-.6,2.3,0-2.6-.8-.9.4.2.6,3,.8,4.7.6-.5.1-3.9-.1-5.5.8,0,1.7,2.9,2.1,6.9.2,3.2-.6,1.4-.4,1.9-.2,5.9,1.5,5.1.9,10-.5,2-1.1,0-1.5.5-.2-2.6.3-4,.3-5.7l-.2,2.1c-.2-.8-.3-2.5-.2-3.5-.5,1.6,0,10-.5,14.6.2.8.4,2.2.6,1.6v-1.5c.3-1.3.5,2.7.7.9.3,1.9.8,4.1.5,6.9l-.6.5c.2,0,.4-1.8.2-2.6.3,1.1-.8,4.2,0,5.5l.4-1.9c.3,2,1,4.4.8,6.8.6-1.1,0-.6.6-2.3-.9,1.5,0-6.2-.9-3.8.8-1.8.3-3.1,1.1-5.4-.2,0-.4.8-.3-1.2,0,0-.1-.3-.2-.4,0,0,0,0,0-.1,0,0,0,0,0,.1,0,0,0-.1,0,0,0,.5-.2.9-.3,1-.5-1-.4-4.2-.7-5.3,0-1.2.2.5.4-.2l-.4-1.6c.4-.2.8-3.2,1-.4v-2.6c.3-1.5.4-3.6.2-4.9,0-1.2-.5-3.1-.2-2l-.3-4h.1c0-4-.7-8.2,0-12.7-.1-1.3-.2-2.7-.1-4.9l.4-.4c-.1-1.7.4-5.1,0-5.9,1.1-1.8.2-8.3.4-11.3h-.5c0-2.2-.1-4.2-.3-6.8l-.4.2c-.4-2.2.3-5.7.3-9.2.2.2.1,1.1,0,1.8,1-4.2-.7-8.9,0-12.7-.2-.9-.1-1.6,0-2.3,0,0,0,.2,0,.2v-.4c0-.4.2-.8.2-1.3-.1.4-.2.8-.2,1.1,0-.7,0-1.8-.2-2.9l.5-.5c0,0,0-.2,0-.3.2-1.1-.2-.9-.6-.3,0-.5-.2-1-.3-1.4.8-.9-.3-2.9.6-4-.4-.7-.3-5.5-1.2-6,.1,0,.2-.4.2.2,0-1.2.2-2.4,0-3.5l.6-.5-.8-2.6c.4-1.6.6-2.3,1.1-.7-.7-3.9-.3-3.1-1-6.4l.4.2c0-1.2-.6-3-.2-3.8.8-2.6,0-13,.8-19.7-1.2,1.3.5-3.1-.4-3.4.3-.4.4-1.3.7-.2-.3-3.4.4-5.2-.3-7.5.3-.4.4.7.6.4,0-.3-.2-1.1,0-1.5.2-.4.2.5.3,1,0-3.5-.9-3.9-1.7-4.1.4-1.8.3-2.7-.2-3.9.3-.6.5-1.7.6.5,0-1.2.4-7.5-.3-7.6.2-.4,0-1.7,0-2,0-2.8,0-3,0-5.7v.7c-.9-1.1-.3-2.3-.4-4.4h0c.6-4.9-.3-2.1.4-7l-.5.3c-1-.5.6-4.4.2-7.2l-.3,1c-.3-1.6,1.4-4.4,1.5-5.9,0-.3.1.5.2,1,.6-4.1-.6-.5-.8-3.6.3-.6.9.7.9-1.3.3-1-1.1-6-.4-8.8-.3.6-.5,1.2-.7-.2,0-2.2,1-5.9.2-7.9,0-.3.1-.4.2-.4-.2-1.7-.3-5.4-.8-6.4,1.7-1.5-.8-10.4.7-10.3v-5.1c0,0,0,.1,0,.1,0-3.3-.3-4.4-.6-5.6,0-.8.2-.2.3-.1.3-4.8.2-5.3-.5-9.3l.5-.4c-.3-1.1.8-6.9.2-11.6,0,0,.2.1.2.5-.6-5.3,1.4-12.6-.4-14.6l-.4-3.5c-.1,4.5-.8-.7-1.1,1.2-.1-1.8.5-4.6.6-2.4v.3c.9.8.2-5.6.9-5.5,0-8.9.5-17.5.5-25.8l-.7,1v-2.9c.2-.8.6-1,.6,1,.4-1.1-.3-3.5-.5-3.5.3-4,.8,1.6.9.3v-1.7c0,0-.1.4-.1.4-.3-1.4-.6-1.5-.6-4,.2-1.6.4-.8.5-1.4,0,0,0-.2,0-.9v-3.7c0,0-.5,1.5-.5,1.5-.3-1.6,0-3.4-.6-1.7,1-2.5.4-13.6.7-15.2-.4-2.3-.4-4.5-.4-7.3-.1.7-.8,1.1-.7-1.3,1.3.9.6-4.4,1.6-6.3-.6,1.7-.2-6.8-1.1-4.1.1-2,.5-.1.8-1.6-.5-4.8.3-10.5.2-16.3-.2,0-.4.9-.7-.4l.9-3.1c0-1.2-1-1.1-.4-3.2-.2.3-.4.7-.4,0,.9-11.5-.7-23.5.9-35.2-.3,1.6-.4.5-.4-.7,0,.8-.4,0-.7.1l.7-4.9c-.7-.9,0-5.2-.7-5.8v1.5c-.6-2.1-1.6,2.9-2.5,2.6.8,2.3-1.3,6.1,0,9.9-.2.8-.3-.7-.5-.3.4,1,.5,2.1.3,4.3v-.2c0,6-.4,8.6-.7,15.4l.5-.5c0,1.5-.2,1.8-.3,2.4.7,1.7,0-4.1.8-2.6-1,1.9,0,10.3-1.1,11.6,0,2.2.6-.7.5,1.6l-.3.6.4.6c0,1.5-.4,2.2-.7,2.3,0-.4,0-1,0-1.4-.3,1.9.1,5.4,0,6l.2-2.1c.3,6.1-.1,13.6.5,19.5l.2-.4c.4,4.5-.2,3.6,0,8.6v-.2c.2,1,.3,2.3.3,3.7-.3-1.3-.5,2.4-.8.7.4,4.9.3,2.4,1.2,5.7l-.4.7c.3,1.1.5,1.2.6,3.7-.3-2-.6,1.6-1-.7-.8,5.2.8,7.7-.4,10.1,1,2.4.6-4.5.8-3.2.3-1.1.8,2,.7,3.6,0,1.7-1.3,2.8-1.3,7,0-.4,0-.4,0-.9-.3,1.6.3,3.1,0,5,.6,1.1,0,2.5.8,2.8l-.2-3.8c.2,2.2,1.1,4.2.7,7.8-.2-.3-.4-1.3-.5-2.1-.2,1,.2,2,0,3.1-.8-.3-.2-4.6-.8-7-.3,1.1.6,4.4-.3,3.2,1.1,1.7-.1,4.1.7,6.9l-.5-.2c0,.4.3,1.4.3,2.2l-.6-1.5c.5,2.3-.5,4.4-.2,6.6,0-4.6.6-1,.9-3,.6,5.7-1.2,3.3-1,9.6,0-.9.3-3.2.5-1.9,0,1.2-.3,2.8-.5,3.5,0,4.2.5-.6.8,1.1-.6,1.4.2,2.1.4,3.9h-.5c-.3,4.8,1,1.3.6,5.6l-.7-1.8.2,2.3-.6-.5c.4,2.4.3,3.2.2,5.6.3-.6.9.3.9,2.4-.3,1.4-.5-.8-.4,2.2-.3-.7-.7-1.4-.2-2.7-.2-.1-.3-.7-.5-.8-.3,1.6,0,3.9,0,5,0-.4,0-.9.1-1.2l.7,4.4c-.2.7-.3.1-.5-.4,0,.9.3,1.5.3,2.8-.4-.3-.8-.3-1-2.1l.4,4.1c-.2.3-.5,2.1-.6,1.6-.2,2.3.8,5.6.5,8.7,0,.2.2.5.2,1.1,0,2.9-.6,5.4,0,8.8l-.7,1.9c.2,2.7.9-2.6,1.2,1.8.2,3.1-.6,1.2-.8,2.3.3,1.6,1.1,4.3.5,7.2-.1-1,0-1.7,0-2.6h0ZM121.2,231.6c0-.6-.4-1.9-.1-2.4.6.7.3,1.3.1,2.4ZM122.3,281.5c-.2-.5,0-1.2,0-2,0,.6,0,1.3,0,2ZM125.7,420.5s0,0,0,0c.2-1.4.1-.9,0,0ZM125.5,423.4c0,.3.1.3.2.2-.1-.2-.1-.9,0-1.6-.1.2-.2.6-.1,1.5h0ZM125.3,107.1v.6c-.3-1.3-.1-.9,0-.6Z"/>
      <path class="cls-3" d="M121.7,275.8c0-.2.2-.2.3-.3,0-.3-.2-.3-.3.3Z"/>
      <path class="cls-3" d="M120.6,178.4h0c0-.2,0-.2,0-.2v.2c0,0,0,0,0,0Z"/>
      <path class="cls-3" d="M121.4,377.8c0-.6.2-.9.2-1.2-.1,0-.2.2-.2,1.2Z"/>
      <path class="cls-3" d="M126.3,439v-1.9c-.1.9-.2,1.2-.3,1.7.1,0,.3-.4.3.2h0Z"/>
      <path class="cls-3" d="M123.3,455.4c0,.3,0,.6,0,.9h.2c0-1.2-.2-2.1-.3-.8h0Z"/>
      <path class="cls-3" d="M124.7,440.8c-.4.2-.3,1.3-.2,2.7v-.2c.6.4.4-1,.2-2.4Z"/>
      <path class="cls-3" d="M124.5,443.7c0,.4,0,.8,0,1.2.2.2,0-.5,0-1.2Z"/>
      <path class="cls-3" d="M125.7,427.2c0,.6.5.4.3.7.5.7-.6-4.2-.3-.7Z"/>
      <polygon class="cls-3" points="123.3 441.8 123.8 441.4 123.4 440.6 123.3 441.8"/>
      <path class="cls-3" d="M123.7,431.4v2.1c0,0,0,.2,0,.6,0-1.3.1-2.7,0-2.7Z"/>
      <path class="cls-3" d="M123.8,434.1c0,.7,0,1.3,0,1.7,0-.4,0-1.2,0-1.7Z"/>
      <polygon class="cls-3" points="123.2 439 123.3 438.3 123.3 436.8 123.2 439"/>
      <path class="cls-3" d="M123.8,408.7v-2.3c-.3-.2-.4.4-.3,1.3.1.6.2,1.4.3,1Z"/>
      <path class="cls-3" d="M122.4,415.7c0-.6.2-.7.4-1h-.6c0,0,.2,1,.2,1h0Z"/>
      <path class="cls-3" d="M122.3,409c-.2-.2-.5-3.3-.5-.4.2.2.3,2.5.5.4Z"/>
      <polygon class="cls-3" points="123.1 374.2 123.1 374.8 124.1 374.7 123.1 374.2"/>
      <path class="cls-3" d="M120.7,343.6c-.2,2.7.6.6.3,3.1.2.6.2-2,.5-1.4-.2-1.6-.1-2.5-.8-1.8Z"/>
      <path class="cls-3" d="M121.4,345.4c0,.3,0,.5.2.8,0-.5-.1-.7-.2-.8Z"/>
      <polygon class="cls-3" points="125.8 -.2 126 -1.9 125.7 -.8 125.8 -.2"/>
      <path class="cls-3" d="M125.1-3.5l.7-.4-.6-1.1c0,.4,0,1.2,0,1.5Z"/>
      <path class="cls-3" d="M119.9,236.5h.2c.2-.1.2-.6.2-1.4l-.4,1.4h0Z"/>
      <polygon class="cls-3" points="120.3 212.7 120.3 213.1 120.9 212.3 120.3 212.7"/>
      <path class="cls-3" d="M119.6,192.7c0,.8.1,1.8,0,2.6-.1-1.8.7-2.8,0-2.6Z"/>
    </g>
  </g>
</svg>