<?xml version="1.0" encoding="UTF-8"?><svg id="Layer_1" xmlns="http://www.w3.org/2000/svg" xmlns:xlink="http://www.w3.org/1999/xlink" viewBox="0 0 166.86 524.97"><defs><clipPath id="clippath"><rect width="166.86" height="524.97" fill="none" stroke-width="0"/></clipPath></defs><g clip-path="url(#clippath)"><line x1=".5" x2=".5" y2="139.7" fill="none" stroke="#fff" stroke-miterlimit="10"/><line x1="54.92" x2="54.92" y2="139.7" fill="none" stroke="#fff" stroke-miterlimit="10"/><line x1="109.33" x2="109.33" y2="139.7" fill="none" stroke="#fff" stroke-miterlimit="10"/><line x1="163.75" x2="163.75" y2="139.7" fill="none" stroke="#fff" stroke-miterlimit="10"/><line x1=".5" y1="149.7" x2=".5" y2="289.39" fill="none" stroke="#fff" stroke-miterlimit="10"/><line x1="54.92" y1="149.7" x2="54.92" y2="289.39" fill="none" stroke="#fff" stroke-miterlimit="10"/><line x1="109.33" y1="149.7" x2="109.33" y2="289.39" fill="none" stroke="#fff" stroke-miterlimit="10"/><line x1="163.75" y1="149.7" x2="163.75" y2="289.39" fill="none" stroke="#fff" stroke-miterlimit="10"/><line x1=".5" y1="299.39" x2=".5" y2="439.09" fill="none" stroke="#fff" stroke-miterlimit="10"/><line x1="54.92" y1="299.39" x2="54.92" y2="439.09" fill="none" stroke="#fff" stroke-miterlimit="10"/><line x1="109.33" y1="299.39" x2="109.33" y2="439.09" fill="none" stroke="#fff" stroke-miterlimit="10"/><line x1="163.75" y1="299.39" x2="163.75" y2="439.09" fill="none" stroke="#fff" stroke-miterlimit="10"/><line x1=".5" y1="449.09" x2=".5" y2="588.78" fill="none" stroke="#fff" stroke-miterlimit="10"/><line x1="54.92" y1="449.09" x2="54.92" y2="588.78" fill="none" stroke="#fff" stroke-miterlimit="10"/><line x1="109.33" y1="449.09" x2="109.33" y2="588.78" fill="none" stroke="#fff" stroke-miterlimit="10"/><line x1="163.75" y1="449.09" x2="163.75" y2="588.78" fill="none" stroke="#fff" stroke-miterlimit="10"/></g></svg>