<?xml version="1.0" encoding="UTF-8"?><svg id="Layer_1" xmlns="http://www.w3.org/2000/svg" viewBox="0 0 185.87 161.7"><rect x="1.08" y="20.45" width="183.8" height="96.07" fill="#ffd4df" stroke="#fff" stroke-miterlimit="10"/><polygon points="184.88 20.45 1.08 20.45 17.94 .5 170.13 .5 184.88 20.45" fill="#ffd4df" stroke="#fff" stroke-miterlimit="10"/><path d="M.91,21.23c15.62,1.57,30.65,8.49,41.99,19.33,5.58,5.33,10.38,11.79,12.26,19.28,1.87,7.46.73,15.43,2.59,22.9,1.9,7.63,6.89,14.28,13.13,19.05s13.69,7.78,21.32,9.7c4.98,1.25,10.18,2.11,14.62,4.71l-105.74.33-.17-95.3Z" fill="#f7a187" stroke-width="0"/><path d="M77.64,20.19c-1.5-1.9-3.09-4.04-2.92-6.45.13-1.81,1.24-3.39,2.47-4.72.91-.98,1.91-1.89,3.06-2.57,1.96-1.15,4.26-1.57,6.44-2.22s4.41-1.66,5.65-3.56l77.62-.17,14.91,20.73-107.24-1.03Z" fill="#f8a187" stroke-width="0"/><path d="M185.07,115.97c-15.62-1.57-30.65-8.49-41.99-19.33-5.58-5.33-10.38-11.79-12.26-19.28-1.87-7.46-.73-15.43-2.59-22.9-1.9-7.63-6.89-14.28-13.13-19.05s-13.69-7.78-21.32-9.7c-4.98-1.25-10.18-2.11-14.62-4.71l105.74-.33.17,95.3Z" fill="#f7a187" stroke-width="0"/><polygon points="1.09 116.36 1.09 159.91 14.25 138.13 14.25 116.36 1.09 116.36" fill="#ffd4df" stroke="#fff" stroke-miterlimit="10"/><polygon points="184.89 116.36 184.89 159.91 171.73 138.13 171.73 116.36 184.89 116.36" fill="#ffd4df" stroke="#fff" stroke-miterlimit="10"/><polygon points="163.5 142.58 21.89 142.58 14.25 116.36 171.73 116.36 163.5 142.58" fill="#ffd4df" stroke="#fff" stroke-miterlimit="10"/><path d="M106.86,116.17c2.05.5,3.8,2.05,4.54,4.02,1.38,3.69-.77,7.68-2.82,11.05s-4.15,7.41-2.66,11.06h-56.89l-27.14.28-7.64-26.22,92.61-.19Z" fill="#f8a187" stroke-width="0"/><path d="M120.43,60.68c.44-.66.63-1.4.56-2.21-.12-.84-.49-1.5-1.12-1.98-.62-.48-1.36-.71-2.2-.68-.79.02-1.42.33-1.89.92-.47.59-.74,1.25-.81,1.98-.07.73.07,1.42.41,2.07.35.65.93,1.06,1.75,1.22-.58.14-1,.44-1.28.9-.28.46-.46.97-.54,1.55s-.12,1.17-.11,1.78c.01.61.02,1.13.02,1.57.02.98,0,1.95-.05,2.9-.06.95-.11,1.91-.16,2.9-.05.7-.08,1.41-.11,2.14-.02.73.06,1.43.25,2.11.17.53.45.9.85,1.12.4.22.87.32,1.42.32.67-.05,1.21-.27,1.62-.67.41-.4.71-.92.9-1.57.19-.7.29-1.41.31-2.14.01-.73.02-1.46.02-2.18-.05-.67-.05-1.33-.02-1.96s.08-1.28.13-1.93c.05-.5.11-1.12.18-1.84.07-.72.07-1.43,0-2.12-.07-.7-.25-1.32-.54-1.87-.29-.55-.77-.91-1.44-1.08.79-.17,1.41-.58,1.85-1.24Z" fill="#ffd4df" stroke="#fff" stroke-miterlimit="10"/><path d="M88.14,64.03c-.35-.44-.76-.8-1.24-1.06-.48-.26-1.01-.46-1.58-.59-.58-.13-1.14-.2-1.69-.2-.72,0-1.45.16-2.2.47-.82.36-1.5.86-2.05,1.49-.55.64-1,1.34-1.33,2.11-.34.77-.57,1.58-.7,2.45-.13.86-.16,1.7-.09,2.52.07.77.22,1.54.43,2.3.22.77.53,1.48.94,2.12.41.65.92,1.19,1.53,1.64.61.44,1.34.74,2.18.88.67.12,1.33.11,1.98-.02.65-.13,1.24-.36,1.78-.68.54-.32,1.01-.74,1.42-1.26.41-.52.72-1.1.94-1.75.14-.43.23-.9.25-1.4.02-.5-.08-.97-.32-1.4-.26-.43-.64-.71-1.12-.85-.48-.13-.96-.13-1.44.02-.53.19-.87.53-1.03,1.01-.16.48-.29.96-.41,1.44-.05.17-.12.35-.22.54s-.21.34-.34.45c-.13.11-.28.15-.43.13-.16-.02-.32-.16-.49-.4-.29-.41-.44-.9-.45-1.48-.01-.58,0-1.1.05-1.58.02-.31.07-.48.13-.5.06-.02.26-.04.59-.04.72,0,1.44-.1,2.16-.29.5-.14.98-.35,1.44-.63.46-.28.85-.61,1.19-.99.33-.38.58-.82.74-1.31.16-.49.19-1.01.09-1.57-.12-.6-.35-1.12-.7-1.57ZM84.61,67.07c-.08.31-.24.6-.47.86-.23.26-.49.4-.77.4-.36,0-.59-.13-.7-.4-.11-.26-.12-.55-.04-.86.08-.31.25-.6.49-.86.24-.26.5-.4.79-.4.36,0,.59.13.68.4.09.26.1.55.02.86Z" fill="#ffd4df" stroke="#fff" stroke-miterlimit="10"/><path d="M62.53,62.1c-.58-.29-1.3-.43-2.16-.43h-.47c-.7.05-1.4.2-2.12.45-.72.25-1.3.68-1.73,1.28-.26.38-.43.81-.49,1.28-.06.47.07.91.38,1.31.19.26.41.4.65.41.24.01.49-.03.74-.13.25-.1.5-.22.76-.38s.49-.27.72-.34c.23-.07.44-.07.65,0,.2.07.38.28.52.61.05.12.11.26.18.41.07.16.14.32.2.5.06.18.09.35.09.52s-.05.31-.14.43c-.19.19-.45.29-.77.29h-.85c-.53-.02-1.11-.02-1.75.02-.64.04-1.26.14-1.87.31-.61.17-1.16.43-1.66.77-.49.35-.85.82-1.06,1.42-.22.58-.22,1.1-.02,1.57.2.47.51.88.92,1.24.41.36.88.67,1.42.92s1.03.45,1.46.59c.24.07.48.14.72.2.24.06.49.11.76.16l.72.11c-.02.12-.04.23-.04.32v.32c0,.31.01.64.04.97.02.34.12.65.29.94.22.43.58.7,1.1.79.52.1.99.08,1.42-.04.46-.1.82-.32,1.1-.67.28-.35.49-.74.65-1.19.16-.44.28-.91.36-1.39.08-.48.15-.91.2-1.3.14-1.01.25-2.02.31-3.02.06-1.01.1-2.03.13-3.06.02-.74.04-1.49.04-2.23s-.07-1.48-.22-2.2c-.19-.91-.58-1.51-1.15-1.8ZM59.29,72.76c-.22.29-.49.43-.83.43-.38,0-.65-.14-.79-.43s-.19-.61-.14-.97c.05-.36.18-.68.4-.97.22-.29.49-.43.83-.43.38,0,.65.14.79.43s.19.61.14.97c-.05.36-.18.68-.4.97Z" fill="#ffd4df" stroke="#fff" stroke-miterlimit="10"/><path d="M75.36,71.05c-.13-.44-.32-.85-.56-1.22-.24-.37-.55-.68-.94-.92-.38-.24-.74-.34-1.06-.31s-.6.17-.83.4c-.23.23-.41.52-.56.86-.14.35-.22.7-.22,1.06,0,.48.07.92.22,1.33.14.41.28.83.4,1.26.07.31.02.54-.14.68-.17.14-.4.19-.68.14-.22-.05-.39-.15-.52-.31-.13-.16-.23-.34-.31-.56-.07-.22-.12-.44-.14-.67-.02-.23-.05-.43-.07-.59-.05-.41-.07-.83-.07-1.26v-2.74l.04-.83c0-.24.05-.35.14-.34.1.01.24.03.43.05.55,0,1.09.04,1.62.11.53.07,1.07.08,1.62.04.31-.02.62-.08.92-.18.3-.1.53-.29.7-.58.17-.29.26-.6.29-.94.02-.34-.02-.66-.13-.97-.11-.31-.28-.58-.52-.81-.24-.23-.53-.38-.86-.45-.67-.19-1.35-.25-2.03-.18-.68.07-1.36.11-2.03.11.02-.36.07-.83.13-1.4.06-.58.11-1.2.16-1.87.05-.67.05-1.35.02-2.03-.04-.68-.14-1.3-.31-1.84-.17-.54-.44-.97-.81-1.28-.37-.31-.87-.44-1.49-.4-.48.07-.89.28-1.22.61-.41.53-.66,1.15-.76,1.87-.1.72-.17,1.39-.22,2.02-.07,1.06-.11,2.09-.11,3.11s-.01,2.05-.04,3.08c-.02,1.66,0,3.34.07,5.06.07,1.72.38,3.37.94,4.95.29.84.71,1.57,1.26,2.18.55.61,1.28,1.01,2.2,1.21.79.14,1.53.12,2.21-.07.68-.19,1.29-.51,1.82-.95.53-.44.94-.99,1.24-1.64.3-.65.47-1.37.52-2.16.02-.41.01-.84-.04-1.3-.05-.46-.14-.91-.27-1.35Z" fill="#ffd4df" stroke="#fff" stroke-miterlimit="10"/><path d="M134.78,62.26c-.07-.59-.21-1.14-.41-1.66-.2-.52-.49-.95-.86-1.3s-.87-.52-1.49-.52c-.53,0-.98.14-1.37.43-.38.29-.67.67-.86,1.15,0,.02-.02.12-.07.29-.05.17-.1.35-.14.54-.05.19-.09.37-.13.52s-.04.23-.02.23c-1.15-.02-2.3.16-3.44.56-1.14.4-2.06,1.11-2.75,2.14-.55.86-.82,1.81-.79,2.84.02,1.03.31,1.98.86,2.84.34.5.72.95,1.15,1.35.43.4.9.74,1.4,1.03.34.19.67.35.99.49.32.13.67.25,1.03.34l.5.14c.17.05.35.08.54.11.19.05.4.08.63.09s.35.13.38.34c.02.22.04.53.04.94s-.04.81-.13,1.21c-.08.4-.22.74-.41,1.04-.19.3-.47.45-.83.45-.22,0-.37-.08-.45-.23-.08-.16-.14-.34-.18-.54s-.05-.41-.05-.63-.01-.38-.04-.5c-.19-.79-.67-1.4-1.44-1.84-.62-.33-1.26-.4-1.91-.2-.65.2-1.13.64-1.44,1.31-.34.79-.44,1.64-.31,2.54s.47,1.69,1.03,2.36c.46.55,1.01,1,1.67,1.33.66.34,1.34.55,2.05.65s1.42.08,2.14-.05c.72-.13,1.38-.4,1.98-.81.72-.46,1.28-1,1.67-1.64.4-.64.7-1.33.9-2.07.2-.74.33-1.51.38-2.3.05-.79.07-1.57.07-2.34.02-1.51.09-3.02.2-4.54.11-1.51.13-3.02.05-4.54-.02-.46-.07-.98-.14-1.57ZM129.5,66.49c-.06.43-.22.83-.49,1.21-.26.37-.61.56-1.04.56s-.73-.19-.9-.56-.23-.77-.18-1.21c.05-.43.21-.83.49-1.21.28-.37.63-.56,1.06-.56s.73.19.9.56c.17.37.22.77.16,1.21Z" fill="#ffd4df" stroke="#fff" stroke-miterlimit="10"/><path d="M121.69,74.74c0,.05,0,.11,0,.16.16-.43.38-.82.65-1.19.3-.4.68-.71,1.13-.95-.74-.67-1.32-1.45-1.73-2.34-.02-.05-.04-.11-.07-.16-.02.4-.04.8-.04,1.21.02,1.08.04,2.17.05,3.28Z" fill="#ffd4df" stroke="#fff" stroke-miterlimit="10"/><path d="M113.28,62.55c-.07-.85-.31-1.59-.72-2.21-.34-.48-.8-.76-1.39-.83-.59-.07-1.1.06-1.53.4-.26.22-.47.47-.61.77-.14.3-.25.62-.32.97-.07.35-.12.7-.14,1.04-.02.35-.05.67-.07.95-.05.91-.05,1.84-.02,2.79s.03,1.89-.02,2.83c-.36-1.08-.68-2.17-.97-3.26s-.64-2.18-1.04-3.26c-.14-.38-.31-.77-.5-1.17-.19-.4-.43-.76-.7-1.08-.28-.32-.59-.59-.95-.81-.36-.22-.78-.32-1.26-.32-.7,0-1.24.25-1.62.76s-.67,1.07-.86,1.69c-.26.89-.42,1.79-.47,2.72s-.1,1.84-.14,2.75c-.07,1.03-.12,2.06-.14,3.1-.02,1.03-.01,2.06.04,3.1.05.7.13,1.45.25,2.25.12.8.41,1.48.86,2.03.31.41.73.65,1.26.74.53.08,1-.05,1.4-.41.34-.33.57-.77.7-1.3.13-.53.22-1.02.27-1.48.12-1.25.1-2.48-.05-3.69-.16-1.21-.21-2.43-.16-3.65.43,1.37.85,2.74,1.26,4.12s.94,2.71,1.58,3.98c.26.55.61,1.09,1.03,1.62.42.53.95.82,1.6.86.67.05,1.21-.16,1.62-.61s.71-.96.9-1.51c.34-.84.55-1.71.65-2.61.09-.9.17-1.78.22-2.65.07-1.03.13-2.06.18-3.1.05-1.03.05-2.06,0-3.1,0-.77-.04-1.58-.11-2.43Z" fill="#ffd4df" stroke="#fff" stroke-miterlimit="10"/><path d="M22.27,48.84v40.07h152.12v-40.07H22.27ZM90.28,66.82c-.07.58-.25,1.13-.52,1.66-.28.53-.63,1-1.06,1.4.77.55,1.23,1.24,1.39,2.05.16.82.12,1.64-.11,2.48-.23.84-.61,1.63-1.15,2.38-.54.74-1.11,1.33-1.71,1.76-.72.48-1.51.8-2.36.97s-1.7.19-2.54.05c-.84-.13-1.64-.41-2.41-.83-.77-.42-1.42-.97-1.94-1.64-.4-.5-.74-1.05-1.03-1.64-.16.52-.36,1.03-.63,1.52-.5.92-1.19,1.65-2.05,2.18-.84.53-1.76.82-2.77.88-1.01.06-1.96-.09-2.84-.45-.89-.34-1.61-.86-2.16-1.58-.55-.72-.98-1.51-1.3-2.38-.1-.28-.18-.56-.26-.84-.05.33-.1.66-.17.99-.12.72-.32,1.45-.61,2.2-.29.74-.74,1.34-1.37,1.8-.34.26-.73.46-1.17.58-.44.12-.89.17-1.33.14-.44-.02-.88-.11-1.31-.27-.43-.16-.79-.39-1.08-.7-.31-.34-.53-.72-.65-1.15-.12-.43-.2-.88-.25-1.33-.02-.19-.21-.32-.56-.38-.35-.06-.62-.13-.81-.2-.48-.14-.96-.32-1.44-.54-.46-.22-.9-.49-1.33-.81s-.8-.69-1.12-1.1c-.19-.25-.34-.52-.47-.79-.34.76-.75,1.48-1.25,2.12-.62.79-1.36,1.46-2.21,2.02-.85.55-1.81.95-2.86,1.19-.5.12-1.03.19-1.57.22-.54.02-1.09.01-1.64-.04-.26.36-.6.64-1.01.85-.41.2-.84.33-1.3.38-1.08.12-1.96-.14-2.65-.79-.68-.65-1.13-1.46-1.35-2.45-.26-1.08-.37-2.18-.32-3.29.05-1.12.1-2.21.14-3.29l.25-2.92.07-1.55c0-.19-.12-.35-.36-.49-.24-.13-.44-.27-.61-.41-.36-.34-.59-.72-.7-1.15s-.12-.86-.04-1.3.26-.83.54-1.21.61-.69.99-.95c.24-.14.48-.28.72-.4.24-.12.49-.2.76-.25.24-.41.53-.74.86-1.01.6-.53,1.34-.79,2.23-.79.36,0,.72.05,1.08.16.36.11.68.27.97.49.17.14.32.31.45.5.13.19.31.29.52.29.22.02.43.04.65.05.22.01.44.04.68.09.77.12,1.52.33,2.27.63.74.3,1.44.69,2.09,1.17,1.37,1.01,2.33,2.29,2.88,3.83.44,1.23.66,2.5.67,3.8.07-.07.14-.14.21-.21.4-.32.83-.6,1.31-.83.48-.23.96-.4,1.44-.52-.7-.7-1.01-1.52-.95-2.48.06-.96.4-1.79,1.03-2.48.65-.74,1.45-1.26,2.39-1.55s1.89-.43,2.83-.43c.58,0,1.15.04,1.73.13s1.1.31,1.58.67c.11.09.21.18.31.27,0-.64,0-1.29.02-1.98.02-.73.09-1.46.2-2.18.11-.72.29-1.37.56-1.96.26-.59.62-1.07,1.08-1.46.46-.38,1.04-.61,1.76-.68,1.18-.1,2.06.16,2.65.77.59.61.99,1.39,1.21,2.32.22.94.3,1.93.25,2.97-.05,1.04-.1,1.94-.14,2.68.43-.02.89-.04,1.37-.04s.94.05,1.39.16c.44.11.86.28,1.26.5.4.23.73.56.99.99.24.41.4.85.47,1.33.01.08,0,.16.01.24.2-.39.42-.78.67-1.14.65-.94,1.46-1.69,2.45-2.25.98-.56,2.13-.85,3.46-.85.55,0,1.11.05,1.67.16.56.11,1.1.27,1.62.49.52.22,1,.49,1.44.83.44.34.82.74,1.13,1.22.36.5.6,1.05.72,1.64.12.59.14,1.17.07,1.75ZM162.66,74.04c-.11,1.04-.41,2.03-.92,2.95s-1.19,1.65-2.05,2.18c-.84.53-1.76.82-2.77.88-1.01.06-1.96-.09-2.84-.45-.89-.34-1.61-.86-2.16-1.58-.55-.72-.98-1.51-1.3-2.38,0-.02-.01-.05-.02-.07-.05.3-.12.59-.19.88-.17.61-.42,1.17-.76,1.67-.34.5-.79.91-1.37,1.22-.53.29-1.07.44-1.64.47-.56.02-1.1-.05-1.6-.23-.5-.18-.95-.46-1.35-.85-.4-.38-.69-.85-.88-1.4-.17.74-.42,1.49-.76,2.23-.34.74-.86,1.32-1.58,1.73-.55.29-1.16.41-1.84.36-.67-.05-1.27-.26-1.8-.65-.62-.48-1.06-1.09-1.3-1.82-.05-.16-.09-.32-.13-.48-.09.23-.19.46-.3.68-.46.96-1.07,1.77-1.85,2.43-.78.66-1.64,1.14-2.57,1.44-.94.3-1.92.41-2.93.34-1.02-.07-2-.36-2.93-.86-.91-.48-1.69-1.14-2.32-1.98s-1.01-1.79-1.13-2.84c-.03-.16-.03-.33-.04-.5-.05.18-.11.36-.17.53-.34.96-.9,1.69-1.69,2.18s-1.7.69-2.74.59c-1.06-.12-1.83-.58-2.32-1.37-.41-.65-.66-1.37-.78-2.16-.24.63-.57,1.2-1.04,1.69-.48.53-1.07.87-1.76,1.03-.7.16-1.38.1-2.05-.16-.72-.26-1.31-.7-1.76-1.31-.46-.61-.84-1.24-1.15-1.89-.12.62-.33,1.21-.63,1.76s-.73,1-1.28,1.33c-.6.29-1.22.38-1.85.29s-1.19-.32-1.67-.68c-.5-.38-.89-.86-1.15-1.44-.26-.58-.46-1.18-.59-1.82s-.22-1.28-.25-1.94c-.04-.66-.05-1.28-.05-1.85-.02-1.51-.01-3.04.04-4.57.05-1.54.18-3.06.4-4.57.1-.58.25-1.17.45-1.78.2-.61.47-1.16.79-1.66.32-.49.73-.89,1.22-1.21s1.09-.47,1.78-.47c.53,0,1.01.1,1.44.29.43.19.83.44,1.19.74.36.3.68.65.97,1.04.29.4.53.81.72,1.24.19-.72.51-1.37.95-1.94.44-.58,1.05-.96,1.82-1.15.74-.17,1.45-.11,2.12.18.5.21.92.52,1.28.92-.01-.44.02-.86.12-1.28.19-.98.65-1.82,1.39-2.5.73-.68,1.6-1.05,2.61-1.1.6-.02,1.17.05,1.71.23.54.18,1.02.44,1.44.77.42.34.77.75,1.06,1.24.29.49.47,1.04.54,1.64.1.62.06,1.24-.11,1.85-.17.61-.44,1.17-.83,1.67-.14.19-.23.31-.27.34s0,.16.13.38c.05.12.1.25.16.38.06.13.11.27.16.41.1.29.16.58.2.86,0,.01,0,.03,0,.04.33-.59.77-1.13,1.31-1.62.34-.31.71-.58,1.12-.81.41-.23.83-.43,1.26-.59.22-.1.44-.18.68-.25.24-.07.48-.13.72-.18.22-.05.48-.08.79-.09.31-.01.49-.13.54-.34.26-.84.73-1.54,1.39-2.11.66-.56,1.45-.85,2.36-.85,1.13,0,1.99.33,2.59.99.45.5.81,1.08,1.08,1.75,0-.69.04-1.43.13-2.24.08-.82.26-1.57.54-2.25.28-.68.68-1.25,1.22-1.71s1.28-.68,2.21-.68c1.08,0,1.92.28,2.52.85s1.04,1.26,1.33,2.09.46,1.72.5,2.66.05,1.82,0,2.61c.67-.19,1.33-.26,1.96-.2s1.23.23,1.78.5,1.04.66,1.46,1.15c.07.09.13.19.2.28,0-.5,0-1.08-.02-1.74-.01-.67,0-1.37.02-2.11.02-.73.09-1.46.2-2.18.11-.72.29-1.37.56-1.96.26-.59.62-1.07,1.08-1.46.46-.38,1.04-.61,1.76-.68,1.18-.1,2.06.16,2.65.77.59.61.99,1.39,1.21,2.32.22.94.3,1.93.25,2.97-.05,1.04-.1,1.94-.14,2.68.43-.02.89-.04,1.37-.04s.94.05,1.39.16.86.28,1.26.5c.4.23.73.56.99.99.24.41.4.85.47,1.33.07.48.06.95-.04,1.42-.1.47-.28.89-.54,1.28-.26.38-.61.68-1.04.9.7.72,1.18,1.59,1.46,2.61.28,1.02.36,2.05.25,3.1Z" fill="#ffd4df" stroke="#fff" stroke-miterlimit="10"/><path d="M49.49,64.15c-.41-.67-.94-1.26-1.58-1.76-.58-.48-1.21-.85-1.91-1.12-.7-.26-1.42-.46-2.16-.58-.24-.05-.47-.08-.68-.09-.22-.01-.43-.03-.65-.05h-.61c-.17,0-.25-.03-.25-.09s-.02-.15-.07-.27c-.36-.7-.94-1.04-1.73-1.04-.43,0-.82.11-1.15.32-.34.22-.6.52-.79.9-.12.19-.21.31-.27.34-.06.04-.2.08-.41.13l-.65.22c-.22.07-.41.17-.59.31-.18.13-.35.28-.52.45-.24.31-.36.62-.36.92s.09.56.27.79c.18.23.41.41.7.56.29.14.6.22.94.22-.12,1.2-.22,2.38-.29,3.55-.07,1.16-.14,2.36-.22,3.58-.05.89-.08,1.82-.11,2.79-.02.97.13,1.9.47,2.79.22.62.59,1.08,1.12,1.37s1.13.3,1.8.04c.19-.07.36-.17.5-.31s.28-.27.4-.41l.22-.54.83.18c.84.07,1.69.04,2.56-.11.79-.14,1.52-.4,2.2-.77s1.27-.83,1.8-1.39c.53-.55.97-1.18,1.33-1.87.36-.7.64-1.43.83-2.2.17-.77.26-1.55.27-2.36.01-.8-.08-1.58-.29-2.34-.2-.76-.51-1.47-.92-2.14ZM44.8,67.07c-.06.43-.22.82-.49,1.17-.26.35-.61.52-1.04.52-.53,0-.9-.2-1.12-.59-.22-.4-.29-.83-.23-1.3.06-.47.24-.89.54-1.26s.71-.52,1.24-.45c.46.07.77.3.94.68.17.38.22.79.16,1.22Z" fill="#ffd4df" stroke="#fff" stroke-miterlimit="10"/><path d="M148.63,64.39c-.31-.64-.78-1.11-1.4-1.42-.79-.38-1.61-.46-2.47-.22-.85.24-1.61.59-2.29,1.04.05-.41.11-.92.18-1.53.07-.61.12-1.25.14-1.93.02-.67,0-1.35-.05-2.03-.06-.68-.2-1.3-.41-1.84s-.53-.98-.94-1.31c-.41-.34-.95-.5-1.62-.5-.72,0-1.27.23-1.64.7s-.62,1.01-.74,1.64c-.19.91-.29,1.85-.29,2.83s-.01,1.91-.04,2.83c0,2.09-.11,4.15-.34,6.19-.23,2.04-.34,4.1-.34,6.19,0,.43.02.95.05,1.57.04.61.14,1.2.32,1.76.18.56.45,1.03.81,1.4.36.37.86.52,1.51.45.62-.07,1.1-.37,1.42-.88.32-.52.56-1.05.7-1.6.24-.89.39-1.79.45-2.7s.1-1.82.13-2.74l.07-3.31c0-.41.05-.8.14-1.19.1-.38.3-.72.61-1.01.36-.31.65-.41.88-.29.23.12.41.33.54.63.13.3.22.64.27,1.03.05.38.07.67.07.86,0,.62-.05,1.26-.14,1.91-.1.65-.18,1.29-.25,1.93s-.11,1.27-.13,1.91c-.01.64.07,1.25.23,1.85.14.6.43,1.04.85,1.33.42.29.88.43,1.37.43s.97-.14,1.42-.43c.46-.29.8-.7,1.04-1.22.29-.7.46-1.42.52-2.18s.1-1.49.13-2.21c.02-1.01.05-2.02.09-3.02.04-1.01-.04-2-.23-2.99-.12-.65-.34-1.29-.65-1.93Z" fill="#ffd4df" stroke="#fff" stroke-miterlimit="10"/><path d="M160.89,71.05c-.13-.44-.32-.85-.56-1.22-.24-.37-.55-.68-.94-.92-.38-.24-.74-.34-1.06-.31s-.6.17-.83.4-.41.52-.56.86c-.14.35-.22.7-.22,1.06,0,.48.07.92.22,1.33.14.41.28.83.4,1.26.07.31.02.54-.14.68-.17.14-.4.19-.68.14-.22-.05-.39-.15-.52-.31-.13-.16-.23-.34-.31-.56-.07-.22-.12-.44-.14-.67-.02-.23-.05-.43-.07-.59-.05-.41-.07-.83-.07-1.26v-2.74l.04-.83c0-.24.05-.35.14-.34.1.01.24.03.43.05.55,0,1.09.04,1.62.11.53.07,1.07.08,1.62.04.31-.02.62-.08.92-.18.3-.1.53-.29.7-.58s.26-.6.29-.94c.02-.34-.02-.66-.13-.97-.11-.31-.28-.58-.52-.81-.24-.23-.53-.38-.86-.45-.67-.19-1.35-.25-2.03-.18-.68.07-1.36.11-2.03.11.02-.36.07-.83.13-1.4.06-.58.11-1.2.16-1.87.05-.67.05-1.35.02-2.03s-.14-1.3-.31-1.84-.44-.97-.81-1.28c-.37-.31-.87-.44-1.49-.4-.48.07-.89.28-1.22.61-.41.53-.66,1.15-.76,1.87-.1.72-.17,1.39-.22,2.02-.07,1.06-.11,2.09-.11,3.11s-.01,2.05-.04,3.08c-.02,1.66,0,3.34.07,5.06s.38,3.37.94,4.95c.29.84.71,1.57,1.26,2.18.55.61,1.28,1.01,2.2,1.21.79.14,1.53.12,2.21-.07.68-.19,1.29-.51,1.82-.95.53-.44.94-.99,1.24-1.64.3-.65.47-1.37.52-2.16.02-.41.01-.84-.04-1.3-.05-.46-.14-.91-.27-1.35Z" fill="#ffd4df" stroke="#fff" stroke-miterlimit="10"/><path d="M75.88,68.88c.04-.33.09-.66.16-.98-.19.17-.39.32-.63.43.17.17.32.36.47.55Z" fill="#ffd4df" stroke="#fff" stroke-miterlimit="10"/><path d="M43.7,65.16c-.53-.07-.94.08-1.24.45s-.48.79-.54,1.26c-.06.47.02.9.23,1.3.22.4.59.59,1.12.59.43,0,.78-.17,1.04-.52.26-.35.43-.74.49-1.17.06-.43,0-.84-.16-1.22-.17-.38-.48-.61-.94-.68Z" fill="#f7a187" stroke-width="0"/><path d="M50.79,71.14c.07-.53.25-1.01.52-1.46.22-.36.49-.67.8-.95-.01-1.3-.23-2.57-.67-3.8-.55-1.55-1.51-2.83-2.88-3.83-.65-.48-1.34-.87-2.09-1.17-.74-.3-1.5-.51-2.27-.63-.24-.05-.47-.08-.68-.09-.22-.01-.43-.03-.65-.05-.22,0-.39-.1-.52-.29-.13-.19-.28-.36-.45-.5-.29-.22-.61-.38-.97-.49-.36-.11-.72-.16-1.08-.16-.89,0-1.63.26-2.23.79-.34.26-.62.6-.86,1.01-.26.05-.52.13-.76.25-.24.12-.48.25-.72.4-.38.26-.71.58-.99.95s-.46.77-.54,1.21-.07.86.04,1.3.34.82.7,1.15c.17.14.37.28.61.41.24.13.36.29.36.49l-.07,1.55-.25,2.92c-.05,1.08-.1,2.18-.14,3.29-.05,1.12.06,2.21.32,3.29.22.98.67,1.8,1.35,2.45.68.65,1.57.91,2.65.79.46-.05.89-.17,1.3-.38.41-.2.74-.49,1.01-.85.55.05,1.1.06,1.64.04.54-.02,1.06-.1,1.57-.22,1.06-.24,2.01-.64,2.86-1.19.85-.55,1.59-1.22,2.21-2.02.51-.65.91-1.36,1.25-2.12-.08-.18-.17-.35-.23-.54-.16-.48-.2-1-.13-1.55ZM50.43,70.99c-.19.77-.47,1.5-.83,2.2-.36.7-.8,1.32-1.33,1.87-.53.55-1.13,1.01-1.8,1.39s-1.4.63-2.2.77c-.86.14-1.72.18-2.56.11l-.83-.18-.22.54c-.12.14-.25.28-.4.41s-.31.23-.5.31c-.67.26-1.27.25-1.8-.04s-.9-.74-1.12-1.37c-.34-.89-.49-1.82-.47-2.79.02-.97.06-1.9.11-2.79.07-1.22.14-2.42.22-3.58.07-1.16.17-2.35.29-3.55-.34,0-.65-.07-.94-.22-.29-.14-.52-.33-.7-.56-.18-.23-.27-.49-.27-.79s.12-.61.36-.92c.17-.17.34-.32.52-.45.18-.13.38-.23.59-.31l.65-.22c.22-.05.35-.09.41-.13.06-.04.15-.15.27-.34.19-.38.46-.68.79-.9.34-.22.72-.32,1.15-.32.79,0,1.37.35,1.73,1.04.05.12.07.21.07.27s.08.09.25.09h.61c.22.02.43.04.65.05.22.01.44.04.68.09.74.12,1.46.31,2.16.58.7.26,1.33.64,1.91,1.12.65.5,1.18,1.09,1.58,1.76s.71,1.39.92,2.14c.2.76.3,1.54.29,2.34-.01.8-.1,1.59-.27,2.36Z" fill="#f7a187" stroke-width="0"/><path d="M64,69.46c-.05-1.07-.06-2.13-.04-3.19.02-1.06.04-2.09.04-3.1,0-.5,0-1.09-.02-1.76,0-.04,0-.08,0-.12-.1-.1-.2-.19-.31-.27-.48-.36-1.01-.58-1.58-.67s-1.15-.13-1.73-.13c-.94,0-1.88.14-2.83.43s-1.75.8-2.39,1.55c-.62.7-.97,1.52-1.03,2.48-.06.96.26,1.79.95,2.48-.48.12-.96.29-1.44.52-.48.23-.92.5-1.31.83-.08.06-.14.14-.21.21,0,.33,0,.66-.02,1-.1,1.03-.33,2.03-.7,2.99-.07.18-.16.33-.24.51.13.28.28.54.47.79.31.41.68.77,1.12,1.1s.88.59,1.33.81c.48.22.96.4,1.44.54.19.07.46.14.81.2.35.06.53.19.56.38.05.46.13.9.25,1.33.12.43.34.82.65,1.15.29.31.65.55,1.08.7.43.16.87.25,1.31.27.44.02.89-.02,1.33-.14.44-.12.83-.31,1.17-.58.62-.46,1.08-1.06,1.37-1.8.29-.74.49-1.48.61-2.2.07-.33.12-.66.17-.99-.22-.72-.4-1.44-.51-2.18-.16-1.03-.26-2.08-.31-3.15ZM63.86,68.33c-.02,1.03-.07,2.05-.13,3.06-.06,1.01-.16,2.02-.31,3.02-.05.38-.11.82-.2,1.3-.08.48-.2.94-.36,1.39-.16.44-.37.84-.65,1.19-.28.35-.64.57-1.1.67-.43.12-.91.13-1.42.04-.52-.1-.88-.36-1.1-.79-.17-.29-.26-.6-.29-.94-.02-.34-.04-.66-.04-.97v-.32c0-.09.01-.2.04-.32l-.72-.11c-.26-.05-.52-.1-.76-.16-.24-.06-.48-.13-.72-.2-.43-.14-.92-.34-1.46-.59s-1.01-.56-1.42-.92c-.41-.36-.71-.77-.92-1.24-.2-.47-.2-.99.02-1.57.22-.6.57-1.07,1.06-1.42.49-.35,1.04-.61,1.66-.77.61-.17,1.24-.27,1.87-.31.64-.04,1.22-.04,1.75-.02h.85c.32,0,.58-.1.77-.29.1-.12.14-.26.14-.43s-.03-.34-.09-.52c-.06-.18-.13-.35-.2-.5-.07-.16-.13-.29-.18-.41-.14-.33-.32-.54-.52-.61-.2-.07-.42-.07-.65,0-.23.07-.47.19-.72.34s-.5.28-.76.38c-.25.1-.5.14-.74.13-.24-.01-.46-.15-.65-.41-.31-.41-.44-.85-.38-1.31.06-.47.22-.89.49-1.28.43-.6,1.01-1.03,1.73-1.28.72-.25,1.43-.4,2.12-.45h.47c.86,0,1.58.14,2.16.43.58.29.96.89,1.15,1.8.14.72.22,1.45.22,2.2s-.01,1.49-.04,2.23Z" fill="#f7a187" stroke-width="0"/><path d="M58.75,70.38c-.34,0-.61.14-.83.43-.22.29-.35.61-.4.97-.05.36,0,.68.14.97s.41.43.79.43c.34,0,.61-.14.83-.43.22-.29.35-.61.4-.97.05-.36,0-.68-.14-.97s-.41-.43-.79-.43Z" fill="#f7a187" stroke-width="0"/><path d="M52.09,69.73c.02-.34.03-.67.02-1-.3.28-.57.59-.8.95-.28.44-.45.93-.52,1.46-.07.55-.03,1.07.13,1.55.06.19.14.36.23.54.08-.17.17-.33.24-.51.37-.96.61-1.96.7-2.99Z" fill="#f7a187" stroke-width="0"/><path d="M75.77,70.56c0-.57.04-1.13.11-1.68-.14-.19-.3-.38-.47-.55.24-.12.44-.27.63-.43.06-.31.13-.61.22-.92.2-.72.47-1.38.79-2.01,0-.08,0-.16-.01-.24-.07-.48-.23-.92-.47-1.33-.26-.43-.59-.76-.99-.99-.4-.23-.82-.4-1.26-.5-.44-.11-.91-.16-1.39-.16s-.94.01-1.37.04c.05-.74.1-1.64.14-2.68.05-1.04-.04-2.03-.25-2.97-.22-.94-.62-1.71-1.21-2.32-.59-.61-1.47-.87-2.65-.77-.72.07-1.31.3-1.76.68-.46.38-.82.87-1.08,1.46-.26.59-.45,1.24-.56,1.96-.11.72-.17,1.45-.2,2.18-.02.69-.03,1.35-.02,1.98.37.36.64.8.81,1.31.22.65.36,1.3.43,1.94.1.91.14,1.82.13,2.72-.01.9-.04,1.81-.09,2.72-.05.98-.11,1.96-.2,2.92-.06.63-.14,1.26-.24,1.89.09.28.16.57.26.84.31.86.74,1.66,1.3,2.38.55.72,1.27,1.25,2.16,1.58.89.36,1.84.51,2.84.45,1.01-.06,1.93-.35,2.77-.88.86-.53,1.55-1.25,2.05-2.18.27-.49.47-1,.63-1.52-.21-.43-.39-.88-.54-1.36-.35-1.14-.52-2.32-.52-3.55ZM75.14,75.85c-.3.65-.71,1.19-1.24,1.64-.53.44-1.13.76-1.82.95-.68.19-1.42.22-2.21.07-.91-.19-1.64-.59-2.2-1.21-.55-.61-.97-1.34-1.26-2.18-.55-1.58-.86-3.23-.94-4.95-.07-1.72-.1-3.4-.07-5.06.02-1.03.04-2.06.04-3.08s.04-2.06.11-3.11c.05-.62.12-1.3.22-2.02.1-.72.35-1.34.76-1.87.34-.33.74-.54,1.22-.61.62-.05,1.12.08,1.49.4.37.31.64.74.81,1.28.17.54.27,1.15.31,1.84.04.68.03,1.36-.02,2.03-.05.67-.1,1.3-.16,1.87-.06.58-.1,1.04-.13,1.4.67,0,1.35-.04,2.03-.11.68-.07,1.36-.01,2.03.18.34.07.62.22.86.45.24.23.41.5.52.81.11.31.15.64.13.97-.02.34-.12.65-.29.94-.17.29-.4.48-.7.58-.3.1-.61.16-.92.18-.55.05-1.09.04-1.62-.04-.53-.07-1.07-.11-1.62-.11-.19-.02-.34-.04-.43-.05-.1-.01-.14.1-.14.34l-.04.83v2.74c0,.43.02.85.07,1.26.02.17.05.37.07.59.02.23.07.45.14.67.07.22.17.4.31.56.13.16.31.26.52.31.29.05.52,0,.68-.14.17-.14.22-.37.14-.68-.12-.43-.25-.85-.4-1.26-.14-.41-.22-.85-.22-1.33,0-.36.07-.71.22-1.06.14-.35.33-.64.56-.86.23-.23.5-.36.83-.4s.68.07,1.06.31c.38.24.7.55.94.92.24.37.43.78.56,1.22.13.44.22.89.27,1.35.05.46.06.89.04,1.3-.05.79-.22,1.51-.52,2.16Z" fill="#f7a187" stroke-width="0"/><path d="M65.26,69.99c.05-.91.08-1.82.09-2.72.01-.9-.03-1.81-.13-2.72-.07-.65-.22-1.3-.43-1.94-.17-.51-.44-.95-.81-1.31,0,.04,0,.08,0,.12.01.67.02,1.26.02,1.76,0,1.01-.01,2.04-.04,3.1-.02,1.06-.01,2.12.04,3.19.05,1.07.15,2.12.31,3.15.11.74.3,1.46.51,2.18.1-.63.19-1.26.24-1.89.08-.96.15-1.93.2-2.92Z" fill="#f7a187" stroke-width="0"/><path d="M83.91,65.81c-.29,0-.55.13-.79.4-.24.26-.4.55-.49.86-.08.31-.07.6.04.86.11.26.34.4.7.4.29,0,.55-.13.77-.4.23-.26.38-.55.47-.86.08-.31.08-.6-.02-.86-.1-.26-.32-.4-.68-.4Z" fill="#f7a187" stroke-width="0"/><path d="M89.49,63.43c-.31-.48-.69-.89-1.13-1.22-.44-.33-.92-.61-1.44-.83-.52-.22-1.06-.38-1.62-.49-.56-.11-1.12-.16-1.67-.16-1.32,0-2.47.28-3.46.85-.98.56-1.8,1.31-2.45,2.25-.25.36-.47.74-.67,1.14.04.4.03.79-.05,1.18-.1.47-.28.89-.54,1.28-.12.17-.26.33-.42.47-.07.33-.12.65-.16.98.45.6.78,1.29.99,2.06.28,1.02.36,2.05.25,3.1-.05.49-.15.97-.29,1.43.29.59.62,1.14,1.03,1.64.53.67,1.18,1.22,1.94,1.64.77.42,1.57.7,2.41.83.84.13,1.69.11,2.54-.05s1.64-.49,2.36-.97c.6-.43,1.17-1.02,1.71-1.76.54-.74.92-1.54,1.15-2.38.23-.84.26-1.67.11-2.48-.16-.82-.62-1.5-1.39-2.05.43-.41.79-.88,1.06-1.4.28-.53.45-1.08.52-1.66s.05-1.16-.07-1.75c-.12-.59-.36-1.13-.72-1.64ZM88.75,67.16c-.16.49-.4.93-.74,1.31-.34.38-.73.71-1.19.99-.46.28-.94.49-1.44.63-.72.19-1.44.29-2.16.29-.34,0-.53.01-.59.04-.06.02-.1.19-.13.5-.05.48-.07,1.01-.05,1.58.01.58.16,1.07.45,1.48.17.24.33.37.49.4.16.02.3-.02.43-.13.13-.11.25-.26.34-.45s.17-.37.22-.54c.12-.48.26-.96.41-1.44.16-.48.5-.82,1.03-1.01.48-.14.96-.15,1.44-.02.48.13.85.41,1.12.85.24.43.35.9.32,1.4-.02.5-.11.97-.25,1.4-.22.65-.53,1.23-.94,1.75-.41.52-.88.94-1.42,1.26-.54.32-1.13.55-1.78.68-.65.13-1.31.14-1.98.02-.84-.14-1.57-.44-2.18-.88-.61-.44-1.12-.99-1.53-1.64-.41-.65-.72-1.36-.94-2.12-.22-.77-.36-1.54-.43-2.3-.07-.82-.04-1.66.09-2.52.13-.86.37-1.68.7-2.45.34-.77.78-1.47,1.33-2.11.55-.64,1.24-1.13,2.05-1.49.74-.31,1.48-.47,2.2-.47.55,0,1.12.07,1.69.2.58.13,1.1.33,1.58.59.48.26.89.62,1.24,1.06.35.44.58.97.7,1.57.1.55.07,1.07-.09,1.57Z" fill="#f7a187" stroke-width="0"/><path d="M76.04,67.9c.15-.14.3-.29.42-.47.26-.38.44-.81.54-1.28.08-.39.09-.79.05-1.18-.32.63-.59,1.3-.79,2.01-.08.3-.16.61-.22.92Z" fill="#f7a187" stroke-width="0"/><path d="M76.87,70.94c-.21-.77-.54-1.46-.99-2.06-.07.55-.11,1.11-.11,1.68,0,1.22.17,2.41.52,3.55.15.48.33.93.54,1.36.14-.47.24-.94.29-1.43.11-1.04.02-2.08-.25-3.1Z" fill="#f7a187" stroke-width="0"/><path d="M113.55,73.62c.11-1.01.19-2.03.23-3.06.05-1.13.04-2.26-.02-3.4-.06-1.14.03-2.26.27-3.37.05-.29.12-.57.22-.85.1-.28.22-.55.36-.81-.14-.19-.28-.39-.41-.59-.13-.2-.25-.41-.34-.63-.19-.48-.31-.97-.34-1.48,0-.07,0-.13,0-.2-.35-.4-.78-.71-1.28-.92-.67-.29-1.38-.35-2.12-.18-.77.19-1.37.58-1.82,1.15-.44.58-.76,1.22-.95,1.94-.19-.43-.43-.85-.72-1.24-.29-.4-.61-.74-.97-1.04-.36-.3-.76-.55-1.19-.74-.43-.19-.91-.29-1.44-.29-.7,0-1.29.16-1.78.47s-.9.71-1.22,1.21c-.32.49-.59,1.04-.79,1.66-.2.61-.35,1.21-.45,1.78-.22,1.51-.35,3.04-.4,4.57-.05,1.54-.06,3.06-.04,4.57,0,.58.02,1.19.05,1.85.04.66.12,1.31.25,1.94s.33,1.24.59,1.82c.26.58.65,1.06,1.15,1.44.48.36,1.04.59,1.67.68s1.25,0,1.85-.29c.55-.34.98-.78,1.28-1.33s.51-1.14.63-1.76c.31.65.7,1.28,1.15,1.89.46.61,1.04,1.05,1.76,1.31.67.26,1.36.32,2.05.16.7-.16,1.28-.5,1.76-1.03.46-.48.8-1.06,1.04-1.69-.03-.17-.05-.33-.07-.51-.1-1.03-.09-2.05.02-3.06ZM113.39,68.08c-.05,1.03-.11,2.06-.18,3.1-.05.86-.12,1.75-.22,2.65-.1.9-.31,1.77-.65,2.61-.19.55-.49,1.06-.9,1.51s-.95.66-1.62.61c-.65-.05-1.18-.34-1.6-.86-.42-.53-.76-1.07-1.03-1.62-.65-1.27-1.18-2.6-1.58-3.98s-.83-2.75-1.26-4.12c-.05,1.22,0,2.44.16,3.65.16,1.21.17,2.44.05,3.69-.05.46-.14.95-.27,1.48-.13.53-.37.96-.7,1.3-.41.36-.88.5-1.4.41-.53-.08-.95-.33-1.26-.74-.46-.55-.74-1.23-.86-2.03-.12-.8-.2-1.55-.25-2.25-.05-1.03-.06-2.06-.04-3.1.02-1.03.07-2.06.14-3.1.05-.91.1-1.83.14-2.75s.2-1.83.47-2.72c.19-.62.48-1.19.86-1.69s.92-.76,1.62-.76c.48,0,.9.11,1.26.32.36.22.68.49.95.81.28.32.51.68.7,1.08.19.4.36.79.5,1.17.41,1.08.76,2.17,1.04,3.26s.61,2.18.97,3.26c.05-.94.05-1.88.02-2.83s-.03-1.88.02-2.79c.02-.29.05-.61.07-.95.02-.35.07-.7.14-1.04.07-.35.18-.67.32-.97.14-.3.35-.56.61-.77.43-.34.94-.47,1.53-.4.59.07,1.05.35,1.39.83.41.62.65,1.36.72,2.21.07.85.11,1.66.11,2.43.05,1.03.05,2.06,0,3.1Z" fill="#f7a187" stroke-width="0"/><path d="M121.64,75.01s.03-.07.05-.11c0-.05,0-.11,0-.16-.01-1.1-.03-2.2-.05-3.28,0-.4.02-.81.04-1.21-.36-.84-.58-1.69-.64-2.57-.06-.94.08-1.85.43-2.74.1-.26.23-.51.36-.75,0-.01,0-.03,0-.04-.04-.29-.1-.58-.2-.86-.05-.14-.1-.28-.16-.41-.06-.13-.11-.26-.16-.38-.12-.22-.16-.34-.13-.38s.13-.15.27-.34c.38-.5.66-1.06.83-1.67.17-.61.2-1.23.11-1.85-.07-.6-.25-1.15-.54-1.64-.29-.49-.64-.91-1.06-1.24-.42-.34-.9-.59-1.44-.77-.54-.18-1.11-.26-1.71-.23-1.01.05-1.88.41-2.61,1.1-.73.68-1.19,1.52-1.39,2.5-.1.42-.14.85-.12,1.28.12.14.24.29.34.45.41.7.67,1.45.77,2.27.11.82.17,1.61.2,2.38.05.84.05,1.67.02,2.5-.04.83-.08,1.65-.13,2.47-.05.91-.09,1.82-.13,2.72-.04.9-.14,1.81-.31,2.72-.14.72-.34,1.45-.58,2.2-.03.09-.08.17-.12.26.12.78.37,1.5.78,2.16.49.79,1.27,1.25,2.32,1.37,1.03.1,1.94-.1,2.74-.59s1.36-1.22,1.69-2.18c.07-.18.12-.35.17-.53-.02-.31-.02-.62,0-.94.05-.5.16-.99.32-1.46ZM120.02,63c.29.55.47,1.18.54,1.87.07.7.07,1.4,0,2.12-.07.72-.13,1.33-.18,1.84-.05.65-.09,1.29-.13,1.93s-.03,1.29.02,1.96c0,.72,0,1.45-.02,2.18-.01.73-.11,1.45-.31,2.14-.19.65-.49,1.17-.9,1.57-.41.4-.95.62-1.62.67-.55,0-1.03-.11-1.42-.32-.4-.22-.68-.59-.85-1.12-.19-.67-.28-1.37-.25-2.11.02-.73.06-1.45.11-2.14.05-.98.1-1.95.16-2.9.06-.95.08-1.91.05-2.9,0-.43,0-.95-.02-1.57-.01-.61.02-1.21.11-1.78s.26-1.09.54-1.55c.28-.46.7-.76,1.28-.9-.82-.17-1.4-.58-1.75-1.22-.35-.65-.49-1.34-.41-2.07.07-.73.34-1.39.81-1.98.47-.59,1.1-.89,1.89-.92.84-.02,1.57.2,2.2.68.62.48,1,1.14,1.12,1.98.07.82-.11,1.55-.56,2.21s-1.06,1.07-1.85,1.24c.67.17,1.15.53,1.44,1.08Z" fill="#f7a187" stroke-width="0"/><path d="M114.29,74.74c.17-.91.27-1.82.31-2.72.04-.9.08-1.81.13-2.72.05-.82.09-1.64.13-2.47.04-.83.03-1.66-.02-2.5-.02-.77-.09-1.56-.2-2.38-.11-.82-.37-1.57-.77-2.27-.1-.16-.22-.31-.34-.45,0,.07,0,.13,0,.2.04.5.15,1,.34,1.48.09.22.21.43.34.63.13.2.27.4.41.59-.14.26-.26.53-.36.81-.1.28-.17.56-.22.85-.24,1.1-.33,2.23-.27,3.37.06,1.14.07,2.27.02,3.4-.05,1.03-.13,2.05-.23,3.06-.11,1.01-.11,2.03-.02,3.06.01.17.04.34.07.51.03-.09.09-.16.12-.26.24-.74.43-1.48.58-2.2Z" fill="#f7a187" stroke-width="0"/><path d="M128.44,64.73c-.43,0-.79.19-1.06.56-.28.37-.44.77-.49,1.21-.05.43.01.83.18,1.21s.47.56.9.56.78-.19,1.04-.56c.26-.37.43-.77.49-1.21.06-.43,0-.83-.16-1.21-.17-.37-.47-.56-.9-.56Z" fill="#f7a187" stroke-width="0"/><path d="M134.97,74.4c.04-.88.08-1.75.13-2.61.07-1.01.16-2.02.27-3.04.11-1.02.19-2.03.23-3.04.05-.94.07-1.87.05-2.79-.01-.92,0-1.85.02-2.79,0-.01,0-.02,0-.03-.27-.67-.63-1.25-1.08-1.75-.6-.66-1.46-.99-2.59-.99-.91,0-1.7.28-2.36.85-.66.56-1.12,1.27-1.39,2.11-.05.22-.23.33-.54.34-.31.01-.58.04-.79.09-.24.05-.48.11-.72.18-.24.07-.47.16-.68.25-.43.17-.85.37-1.26.59-.41.23-.78.5-1.12.81-.54.49-.98,1.04-1.31,1.62.03.27.06.55.09.82.1,1.08.07,2.15-.07,3.22-.09.67-.14,1.34-.18,2.01.02.05.04.11.07.16.41.89.98,1.67,1.73,2.34-.46.24-.83.56-1.13.95-.28.36-.49.76-.65,1.19,0,.86-.13,1.7-.38,2.51.01.17.02.33.04.5.12,1.06.5,2,1.13,2.84s1.41,1.5,2.32,1.98c.94.5,1.91.79,2.93.86,1.02.07,2-.04,2.93-.34.94-.3,1.79-.78,2.57-1.44.78-.66,1.4-1.47,1.85-2.43.11-.23.21-.45.3-.68-.16-.57-.28-1.13-.34-1.69-.1-.86-.13-1.73-.09-2.61ZM134.87,68.37c-.11,1.51-.17,3.02-.2,4.54,0,.77-.02,1.55-.07,2.34-.05.79-.17,1.56-.38,2.3-.2.75-.5,1.43-.9,2.07-.4.64-.95,1.18-1.67,1.64-.6.41-1.26.68-1.98.81-.72.13-1.43.15-2.14.05s-1.39-.31-2.05-.65c-.66-.34-1.22-.78-1.67-1.33-.55-.67-.89-1.46-1.03-2.36s-.03-1.75.31-2.54c.31-.67.79-1.11,1.44-1.31.65-.2,1.28-.14,1.91.2.77.43,1.25,1.04,1.44,1.84.02.12.04.29.04.5s.02.43.05.63.1.38.18.54c.08.16.23.23.45.23.36,0,.64-.15.83-.45.19-.3.33-.65.41-1.04.08-.4.13-.8.13-1.21s-.01-.72-.04-.94c-.02-.22-.15-.33-.38-.34s-.44-.04-.63-.09c-.19-.02-.37-.06-.54-.11l-.5-.14c-.36-.1-.7-.21-1.03-.34-.32-.13-.65-.29-.99-.49-.5-.29-.97-.63-1.4-1.03-.43-.4-.82-.85-1.15-1.35-.55-.86-.84-1.81-.86-2.84-.02-1.03.24-1.98.79-2.84.7-1.03,1.61-1.75,2.75-2.14,1.14-.4,2.29-.58,3.44-.56-.02,0-.02-.08.02-.23s.08-.33.13-.52c.05-.19.1-.37.14-.54.05-.17.07-.26.07-.29.19-.48.48-.86.86-1.15.38-.29.84-.43,1.37-.43.62,0,1.12.17,1.49.52s.66.78.86,1.3c.2.52.34,1.07.41,1.66s.12,1.11.14,1.57c.07,1.51.05,3.02-.05,4.54Z" fill="#f7a187" stroke-width="0"/><path d="M121.64,75.01c-.17.47-.28.95-.32,1.46-.03.33-.03.64,0,.94.25-.81.38-1.65.38-2.51-.01.04-.03.07-.05.11Z" fill="#f7a187" stroke-width="0"/><path d="M121.04,67.68c.06.88.27,1.74.64,2.57.03-.67.09-1.34.18-2.01.14-1.07.17-2.14.07-3.22-.02-.27-.05-.55-.09-.82-.14.24-.26.49-.36.75-.35.89-.49,1.8-.43,2.74Z" fill="#f7a187" stroke-width="0"/><path d="M149.54,69.46c-.05-1.07-.06-2.13-.04-3.19.02-1.06.04-2.09.04-3.1,0,0,0-.02,0-.03-.07-.09-.12-.19-.2-.28-.42-.49-.91-.88-1.46-1.15s-1.15-.44-1.78-.5-1.29,0-1.96.2c.05-.79.05-1.66,0-2.61s-.22-1.84-.5-2.66-.73-1.52-1.33-2.09-1.44-.85-2.52-.85c-.94,0-1.67.23-2.21.68s-.95,1.03-1.22,1.71c-.28.68-.46,1.43-.54,2.25-.08.8-.12,1.55-.13,2.24.09.22.17.44.23.68.28.96.43,1.96.45,3.01.02,1.04.02,1.96,0,2.75-.02,1.15-.08,2.3-.16,3.44s-.1,2.29-.05,3.44c.02,1.03-.03,2.05-.16,3.06-.1.77-.3,1.51-.58,2.23.04.16.08.32.13.48.24.73.67,1.34,1.3,1.82.53.38,1.13.6,1.8.65.67.05,1.28-.07,1.84-.36.72-.41,1.25-.98,1.58-1.73.34-.74.59-1.49.76-2.23.19.55.49,1.02.88,1.4.4.38.85.67,1.35.85.5.18,1.04.26,1.6.23.56-.02,1.11-.18,1.64-.47.58-.31,1.03-.72,1.37-1.22.33-.5.59-1.06.76-1.67.08-.29.14-.58.19-.88-.35-.96-.6-1.95-.75-2.96-.16-1.03-.26-2.08-.31-3.15ZM149.43,72.33c-.02.72-.07,1.46-.13,2.21s-.23,1.48-.52,2.18c-.24.53-.59.94-1.04,1.22-.46.29-.93.43-1.42.43s-.95-.14-1.37-.43c-.42-.29-.7-.73-.85-1.33-.17-.6-.25-1.22-.23-1.85.01-.63.05-1.27.13-1.91s.16-1.28.25-1.93c.1-.65.14-1.28.14-1.91,0-.19-.02-.48-.07-.86-.05-.38-.14-.73-.27-1.03-.13-.3-.31-.51-.54-.63-.23-.12-.52-.02-.88.29-.31.29-.52.62-.61,1.01-.1.38-.14.78-.14,1.19l-.07,3.31c-.02.91-.07,1.82-.13,2.74s-.21,1.81-.45,2.7c-.14.55-.38,1.09-.7,1.6-.32.52-.8.81-1.42.88-.65.07-1.15-.08-1.51-.45-.36-.37-.63-.84-.81-1.4-.18-.56-.29-1.15-.32-1.76-.04-.61-.05-1.13-.05-1.57,0-2.09.11-4.15.34-6.19.23-2.04.34-4.1.34-6.19.02-.91.04-1.85.04-2.83s.1-1.91.29-2.83c.12-.62.37-1.17.74-1.64s.92-.7,1.64-.7c.67,0,1.21.17,1.62.5.41.34.72.77.94,1.31s.35,1.15.41,1.84c.06.68.08,1.36.05,2.03-.02.67-.07,1.31-.14,1.93-.07.61-.13,1.12-.18,1.53.67-.46,1.43-.8,2.29-1.04.85-.24,1.67-.17,2.47.22.62.31,1.09.79,1.4,1.42s.53,1.28.65,1.93c.19.98.27,1.98.23,2.99-.04,1.01-.07,2.02-.09,3.02Z" fill="#f7a187" stroke-width="0"/><path d="M136.14,73.41c-.05-1.15-.03-2.3.05-3.44s.14-2.29.16-3.44c.02-.79.02-1.71,0-2.75-.02-1.04-.17-2.05-.45-3.01-.07-.24-.15-.46-.23-.68,0,.01,0,.02,0,.03-.02.94-.03,1.87-.02,2.79.01.92,0,1.85-.05,2.79-.05,1.01-.13,2.02-.23,3.04-.11,1.02-.2,2.03-.27,3.04-.05.86-.09,1.73-.13,2.61-.04.88,0,1.75.09,2.61.06.56.18,1.13.34,1.69.29-.72.48-1.47.58-2.23.13-1.01.19-2.03.16-3.06Z" fill="#f7a187" stroke-width="0"/><path d="M160.95,68.33c.43-.22.78-.52,1.04-.9.26-.38.44-.81.54-1.28.1-.47.11-.94.04-1.42-.07-.48-.23-.92-.47-1.33-.26-.43-.59-.76-.99-.99-.4-.23-.82-.4-1.26-.5s-.91-.16-1.39-.16-.94.01-1.37.04c.05-.74.1-1.64.14-2.68.05-1.04-.04-2.03-.25-2.97-.22-.94-.62-1.71-1.21-2.32-.59-.61-1.47-.87-2.65-.77-.72.07-1.31.3-1.76.68-.46.38-.82.87-1.08,1.46-.26.59-.45,1.24-.56,1.96-.11.72-.17,1.45-.2,2.18-.02.73-.03,1.43-.02,2.11.01.66.02,1.24.02,1.74.32.43.59.9.79,1.43.22.62.36,1.26.43,1.91.07.65.11,1.31.11,1.98s0,1.4.02,2.12c.01.72,0,1.43-.05,2.12-.02.58-.06,1.19-.11,1.84-.03.34-.07.68-.13,1.01,0,.02.01.05.02.07.31.86.74,1.66,1.3,2.38.55.72,1.27,1.25,2.16,1.58.89.36,1.84.51,2.84.45,1.01-.06,1.93-.35,2.77-.88.86-.53,1.55-1.25,2.05-2.18s.81-1.91.92-2.95c.11-1.04.02-2.08-.25-3.1-.28-1.02-.76-1.89-1.46-2.61ZM160.68,75.85c-.3.65-.71,1.19-1.24,1.64-.53.44-1.13.76-1.82.95-.68.19-1.42.22-2.21.07-.91-.19-1.64-.59-2.2-1.21-.55-.61-.97-1.34-1.26-2.18-.55-1.58-.86-3.23-.94-4.95s-.1-3.4-.07-5.06c.02-1.03.04-2.06.04-3.08s.04-2.06.11-3.11c.05-.62.12-1.3.22-2.02.1-.72.35-1.34.76-1.87.34-.33.74-.54,1.22-.61.62-.05,1.12.08,1.49.4.37.31.64.74.81,1.28s.27,1.15.31,1.84.03,1.36-.02,2.03c-.05.67-.1,1.3-.16,1.87-.06.58-.1,1.04-.13,1.4.67,0,1.35-.04,2.03-.11.68-.07,1.36-.01,2.03.18.33.07.62.22.86.45.24.23.41.5.52.81.11.31.15.64.13.97-.02.34-.12.65-.29.94s-.4.48-.7.58c-.3.1-.61.16-.92.18-.55.05-1.09.04-1.62-.04-.53-.07-1.07-.11-1.62-.11-.19-.02-.34-.04-.43-.05-.1-.01-.14.1-.14.34l-.04.83v2.74c0,.43.02.85.07,1.26.02.17.05.37.07.59.02.23.07.45.14.67.07.22.17.4.31.56.13.16.31.26.52.31.29.05.52,0,.68-.14.17-.14.22-.37.14-.68-.12-.43-.25-.85-.4-1.26-.14-.41-.22-.85-.22-1.33,0-.36.07-.71.22-1.06.14-.35.33-.64.56-.86s.5-.36.83-.4.68.07,1.06.31c.38.24.7.55.94.92.24.37.43.78.56,1.22s.22.89.27,1.35c.05.46.06.89.04,1.3-.05.79-.22,1.51-.52,2.16Z" fill="#f7a187" stroke-width="0"/><path d="M150.83,72.72c.05-.7.07-1.4.05-2.12-.01-.72-.02-1.43-.02-2.12s-.04-1.33-.11-1.98c-.07-.65-.22-1.28-.43-1.91-.2-.53-.47-1-.79-1.43,0,0,0,.02,0,.03,0,1.01-.01,2.04-.04,3.1-.02,1.06-.01,2.12.04,3.19.05,1.07.15,2.12.31,3.15.15,1.01.41,1.99.75,2.96.06-.33.1-.67.13-1.01.05-.65.08-1.26.11-1.84Z" fill="#f7a187" stroke-width="0"/></svg>